<svg xmlns="http://www.w3.org/2000/svg" viewBox="0 0 155 155"><defs><style>.cls-1{fill:#212121;}.cls-2{fill:#efebe9;}</style></defs><title>black-water-txt-logo</title><g id="Layer_2" data-name="Layer 2"><g id="Web_Wireframe_2_Inverse" data-name="Web Wireframe 2 Inverse"><g id="Logo"><rect class="cls-1" width="155" height="155"/><rect class="cls-2" x="13" y="13" width="129" height="129"/><path class="cls-1" d="M62.4888,39.0317c0,1.524-1.0066,2.5591-2.3867,3.508l-4.1407,2.8466a18.4522,18.4522,0,0,0-7.0445-1.9841c-2.0992,0-3.5657.834-3.5657,3.5368l-.0862.0288-.6326-.5464c.4888-3.1917,2.1567-4.917,3.6805-5.3483a5.9,5.9,0,0,0,.4889-2.8178V34.8911h-.4024c-1.38,0-2.3.345-2.76,1.2939L45.38,36.07c.2876-2.9617,1.639-4.2268,3.3068-4.2268h.1149v-3.68c-2.0989-1.5241-2.6167-1.9266-3.393-1.9266-.4889,0-.6613.23-1.15.6326l-.3451-.4025,3.6229-3.048c1.15.8915,2.9907,2.1853,4.4858,3.2492l1.3225-.92v-.3737a7.0218,7.0218,0,0,0-.2586-1.84v-.0575l.6037.0863a8.1124,8.1124,0,0,1,.1727,1.61v.2013L56.594,23.447a36.4407,36.4407,0,0,1,4.9458,5.09l-4.0832,2.9041c3.0193.4313,5.0322,2.3579,5.0322,5.147ZM53.3448,26.38l-1.2076.8627v9.575c0,1.61-1.3225,2.53-3.0479,3.968l.0289.0576a8.9584,8.9584,0,0,1,2.3577-.3739,11.1922,11.1922,0,0,1,1.8689.2589Zm5.0033,3.7093a22.6531,22.6531,0,0,0-4.0832-4.3419l-.4023.2589v7.2459Zm.8339,7.2748c0-2.3579-1.6389-3.7668-4.4568-3.7668a1.691,1.691,0,0,0-.8626.2587V40.872a24.5615,24.5615,0,0,1,4.8881,1.984l.0862-.0576c.2876-.46.3451-.7188.3451-2.07Z"/><path class="cls-1" d="M80.3306,39.8888c-.6326.8338-1.984,2.4727-2.8755,3.4216a31.0338,31.0338,0,0,1-4.37-2.1278V56.3072c2.3577.4314,4.2556,1.0064,4.8592,1.0064.6616,0,.9777-.5464,1.409-1.2364l.5464.3739L76.9376,60.62a38.302,38.302,0,0,0-10.4951-1.5814,4.7293,4.7293,0,0,0-2.6166,1.3226l-.4313-.4888,2.4729-2.214c1.9264-1.7253,2.185-2.9041,2.185-5.147v-2.214h-.3737c-1.38,0-2.3.3449-2.76,1.2939l-.2586-.115c.2875-2.9617,1.6389-4.2268,3.3065-4.2268h.0862V42.3615c1.8116-.7188,5.4635-2.6452,7.2462-3.6229a8.3473,8.3473,0,0,0,3.5943,1.5527c.2875,0,.575-.1725,1.035-.7476ZM72.567,40.9813l-.1149-.0862-1.0639.5176v9.6614a5.6743,5.6743,0,0,1-2.2718,4.543l-1.0639.8626.1151.1438a6.2452,6.2452,0,0,1,2.0992-.5175c.92,0,1.3514.0862,2.3.1437Z"/><path class="cls-1" d="M98.13,72.7512c-.9487,1.0064-2.0988,2.1566-2.6166,2.7316-1.15-.92-2.07-1.8114-3.3354-2.6742H92.12c-.7474.7764-1.5813,1.7829-2.3291,2.6742a39.45,39.45,0,0,0-7.7058-1.84,4.77,4.77,0,0,0-.949,2.5016H81.05l-.7188-.6326a5.4318,5.4318,0,0,1,1.15-2.4153l9.5749-13.7445a4.2769,4.2769,0,0,0-4.4279-3.1341c-2.4729,0-4.4858,1.3514-4.4858,3.7955a4.2824,4.2824,0,0,0,2.8755,4.2844v.0575l-1.0639.3737A5.1961,5.1961,0,0,1,81.4526,59.87a6.183,6.183,0,0,1,6.3544-6.1534c3.163,0,4.7158,1.15,5.8372,2.8179a4.412,4.412,0,0,1,2.3291-2.3578l.1438.0287a5.3721,5.3721,0,0,0-.604,2.3866V71.2273c.7764.46,1.8692,1.0639,2.6166,1.4376Zm-5.952-4.9457H86.0532L83.8965,70.911l.029.0574c2.5877.23,6.9008,1.61,7.4472,1.61a1.3819,1.3819,0,0,0,.805-.3739Zm0-1.984v-6.93h-.0862l-4.6868,6.93Z"/><path class="cls-1" d="M117.3631,70.7577a37.0251,37.0251,0,0,1-2.8755,3.5367c-.8626-.3163-2.5591-.9777-4.198-1.7253V89.1314c.3164.0288.9777.0288,1.3228.0288a8.3221,8.3221,0,0,0,5.2332-1.6391l.23.3451c-1.4377,1.984-3.5368,3.8243-7.8785,3.8243-5.8659,0-9.8628-3.4792-9.8628-9.69a11.46,11.46,0,0,1,5.7221-9.4313l.3737.2588c-1.7827,1.6391-2.6739,4.6582-2.6739,7.0735a10.5464,10.5464,0,0,0,1.5527,6.1245,3.1149,3.1149,0,0,0,1.2077-2.9041v-8.54c2.4728-1.8978,4.0828-3.3067,5.7793-4.8019,2.4442.9777,3.5368,1.38,4.7158,1.38.2589,0,.5464-.1726.92-.7188Zm-7.591,1.5527-.3164-.1439-.8626.69V83.7544s-2.1278,1.3226-4.0256,2.6454a7.6679,7.6679,0,0,0,5.2046,2.7028Z"/><path class="cls-1" d="M136.6728,104.7573c-.6326.8339-1.7254,2.5016-2.2429,3.2205a3.4339,3.4339,0,0,1-3.6518-2.5879l-.7764-3.8243c-.3737-1.8689-1.3514-2.4441-2.6166-2.4441a1.7173,1.7173,0,0,0-.7764.2876v4.9169a5.4389,5.4389,0,0,0,1.0928.1437c.2875,0,.46-.1724.8912-.69l.46.3451c-.7763.92-2.0416,2.76-2.6452,3.6229a12.331,12.331,0,0,0-5.7221-1.0926,5.5481,5.5481,0,0,0-3.393,1.0926l-.374-.46,2.0991-1.84c1.4376-1.2652,2.53-2.53,2.53-4.3706V98.0289h-.3738c-1.38,0-2.3.345-2.76,1.294l-.2589-.115c.1724-3.1055,1.6389-4.2269,3.3068-4.2269h.0862V89.7477c1.4665-.6326,5.3194-2.5015,7.2458-3.6517a5.4373,5.4373,0,0,0,2.9907,1.2364c.3737,0,.7188-.2587,1.0638-.7476l.4024.3451c-.7188.8914-1.5814,1.9265-2.8752,3.3067A20.3347,20.3347,0,0,1,126.12,88.195l-1.2363.604v5.5494l5.377-3.8243a33.1067,33.1067,0,0,1,3.5943,4.4281c-1.179.8051-3.7957,2.4441-3.7957,2.4441v.0287a3.4927,3.4927,0,0,1,3.1917,2.4441l.6615,3.1343c.3448,1.6389.7188,2.099,1.38,2.099.2875,0,.5464-.1438.8915-.7189Zm-10.61-10.61c-.46.3163-.8915.6612-1.179.8625v4.0256c0,1.6965-.9777,3.4792-3.4506,5.0032l.029.0575a5.8529,5.8529,0,0,1,1.5527-.3738,14.3129,14.3129,0,0,1,3.0479.4888Zm1.9551-1.409c-.2586.1725-.805.5751-1.409,1.0063v5.1183c2.0129-1.2077,2.9041-1.7541,4.1121-2.53A17.0313,17.0313,0,0,0,128.0177,92.7382Z"/><path class="cls-1" d="M42.9528,57.0677c0,2.674-.69,3.22-3.8243,6.5271-.8339.8913-1.84,1.6677-2.9041,2.7891a40.5717,40.5717,0,0,0-5.377-2.9617l-3.6519,2.9617a31.74,31.74,0,0,0-6.3258-2.99l-.0286-.1725a3.842,3.842,0,0,0,1.5814-3.3929V56.0612h-.3738c-1.38,0-2.3.3451-2.76,1.294L19.03,57.24c.2875-2.9616,1.6389-4.2268,3.3068-4.2268h.0862v-3.45c-2.3-1.61-2.9042-1.9554-3.4217-1.9554-.4026,0-.5753.1726-1.3227.7764l-.3451-.4025c1.5814-1.3228,2.4153-2.0416,3.7956-3.1917,1.1212.8338,2.7028,2.0128,4.5142,3.3067l1.2941-.9777v-.3162a7.2615,7.2615,0,0,0-.2589-1.869v-.0576l.6326.0864a7.802,7.802,0,0,1,.1724,1.5813v.2014c.7764-.5751,1.5241-1.0927,2.588-1.8979,1.4952,1.0927,2.5591,1.8115,4.0831,2.7316.46-.3163.8626-.6324,1.3225-.9487a7.28,7.28,0,0,0-.2586-1.6965v-.0576l.6326.0864a10.7634,10.7634,0,0,1,.1724,1.3226c.6613-.5176,1.2077-.92,1.8689-1.409,2.5018.6039,5.0609,2.1278,5.0609,6.24ZM26.9369,47.7513l-1.179.8915v8.9711c0,1.524-.6326,2.53-2.3,3.7667v.0864a30.5969,30.5969,0,0,1,3.4792.9489ZM31.02,52.5532V49.39c-1.2939-.8915-2.4153-1.61-3.3355-2.2142l-.2013.1726v6.8147Zm0,2.6742V53.0421L27.483,54.6235v2.2141Zm0,7.3322V55.7161L27.483,57.2976v5.3482c.6326.2588,1.4665.719,2.1278,1.0639Zm4.4568-15.2684-1.1211.8052V61.64a6.3267,6.3267,0,0,1,1.1211.5175Zm4.1694,5.262v-.2875c0-2.9617-1.1787-4.4569-3.5654-5.0319H36.023v6.9871Zm0,2.6742V53.0421L36.023,54.681v2.2141Zm0,.4887-3.623,1.6391v5.0607a17.2083,17.2083,0,0,1,2.3,1.2651,4.1234,4.1234,0,0,0,1.3225-3.5368Z"/><path class="cls-1" d="M60.9456,81.9561c-.9487,1.0064-2.0988,2.1566-2.6166,2.7316-1.15-.92-2.07-1.8114-3.3354-2.6741H54.936c-.7474.7763-1.5814,1.7828-2.3291,2.6741a39.4585,39.4585,0,0,0-7.7058-1.84,4.77,4.77,0,0,0-.949,2.5016h-.0862l-.7188-.6326a5.4325,5.4325,0,0,1,1.15-2.4153l9.575-13.7445a4.2769,4.2769,0,0,0-4.4279-3.1341c-2.4729,0-4.4858,1.3515-4.4858,3.7955a4.2824,4.2824,0,0,0,2.8755,4.2844V73.56l-1.0639.3737a5.1961,5.1961,0,0,1-2.5015-4.8593,6.183,6.183,0,0,1,6.3544-6.1534c3.163,0,4.7158,1.15,5.8372,2.818a4.4123,4.4123,0,0,1,2.3291-2.3579l.1438.0288a5.3713,5.3713,0,0,0-.604,2.3865V80.4322c.7764.46,1.8692,1.0639,2.6166,1.4376ZM54.9936,77.01H48.8691l-2.1567,3.1055.029.0574c2.5877.23,6.9008,1.61,7.4472,1.61a1.3813,1.3813,0,0,0,.805-.3739Zm0-1.984v-6.93h-.0862l-4.6869,6.93Z"/><path class="cls-1" d="M80.6254,79.1534c-1.0639,2.99-2.0415,3.8529-3.7094,3.8529a8.4993,8.4993,0,0,1-1.8689-.23V98.1309a9.6176,9.6176,0,0,0,5.1757-1.6965l.2875.46a8.8014,8.8014,0,0,1-7.7923,3.9392,9.079,9.079,0,0,1-9.4888-9.5175c0-4.2843,2.8755-7.476,6.5271-9.4025-.7188-.0575-1.4665-.1151-2.3577-.1151-1.984,0-4.0256.9489-5.6359,5.55l-.5464-.2014c1.0066-6.527,3.3068-8.2235,6.9586-8.2235,3.623,0,6.0383,1.2939,10.179,1.2939.4888,0,.92-.1437,1.8975-1.4089ZM70.2738,81.9712h-.0573a10.9645,10.9645,0,0,0-3.5367,7.821,9.13,9.13,0,0,0,1.6965,5.8083l.9774-.69c.6326-.46.92-1.0927.92-2.76ZM74.53,82.69c-.3164-.0575-.7477-.1724-1.179-.2588v10.38s-3.0192,2.0415-4.6293,3.163A7.834,7.834,0,0,0,74.53,98.1309Z"/><path class="cls-1" d="M99.2307,96.427a37.0127,37.0127,0,0,1-2.8755,3.5367c-.8626-.3163-2.5591-.9776-4.198-1.7252v5.8944H96.844c-.2586,1.3228-.4313,2.0416-.6326,3.22a3.1616,3.1616,0,0,0-1.5527-.3737H92.1572v7.821c.3164.0288.9777.0288,1.3228.0288a8.6841,8.6841,0,0,0,5.348-1.754l.23.345a8.9089,8.9089,0,0,1-7.9936,3.9393c-5.8659,0-9.8628-3.4792-9.8628-9.69a11.5044,11.5044,0,0,1,5.751-9.4312l.3448.2587c-1.7827,1.6389-2.6739,4.6582-2.6739,7.0735a10.5149,10.5149,0,0,0,1.5813,6.1246,3.1987,3.1987,0,0,0,1.1791-2.9042v-8.54c2.4728-1.8979,4.0828-3.3068,5.7793-4.802,2.4442.9777,3.5368,1.38,4.7158,1.38.2588,0,.5464-.1725.92-.7188ZM91.64,97.98l-.3164-.1437-.8626.7476v10.84s-2.0989,1.3227-3.9967,2.6454a7.7319,7.7319,0,0,0,5.1757,2.6741Z"/><path class="cls-1" d="M121.2623,132.7509l-2.3,3.22a3.8212,3.8212,0,0,1-3.9394-3.5943l-.5461-3.4218c-.4027-2.4441-1.0064-3.0191-2.9907-3.1917l-.6037.3163v6.6135a10.48,10.48,0,0,0,1.0353.1725c.3162,0,.575-.1438,1.0925-.8626l.46.3162c-.69.8339-1.9267,2.3867-2.7893,3.68a14.5615,14.5615,0,0,0-6.2109-1.3228,3.7717,3.7717,0,0,0-2.8752,1.0928l-.4027-.46,2.5015-2.3a5.3139,5.3139,0,0,0,2.1278-4.0256v-3.2779h-.6037A2.6583,2.6583,0,0,0,102.6009,127l-.2875-.115c.1151-2.6742,1.2652-4.2268,3.3641-4.2268h.1437v-3.6231c-2.2426-1.6965-2.8466-1.9264-3.2489-1.9264a1.7811,1.7811,0,0,0-1.179.6326l-.3451-.4027,3.6229-3.0479c1.409,1.0351,3.1341,2.3291,4.4569,3.3067l1.2076-.7762v-.6327a7.0216,7.0216,0,0,0-.2586-1.84v-.0576l.6613.0864a8.3477,8.3477,0,0,1,.1437,1.61v.4889l3.393-2.1854c2.2716.69,4.3131,1.7541,4.3131,4.5431,0,2.2141-1.2076,3.9394-3.9969,5.147,2.1853.2588,2.9617,1.9553,3.3068,3.9393l.4888,2.8179c.3737,2.1278,1.0063,2.3,1.5527,2.3.2876,0,.5465-.23.834-.69Zm-10.9267-15.2972c-.5174.3451-1.1787.7477-1.1787.7477v8.54c0,2.6741-1.5816,4.083-3.45,5.32l.0286.0575a5.138,5.138,0,0,1,1.5817-.2587,23.1835,23.1835,0,0,1,3.0189.7188Zm1.5817-1.0063-1.0353.6614v8.3385c3.1917-1.4089,4.2556-2.8753,4.2556-5.1756C115.1376,118.0289,113.8437,116.9937,111.9173,116.4474Z"/></g></g></g></svg>