<svg xmlns="http://www.w3.org/2000/svg" viewBox="0 0 155 71"><defs><style>.cls-1{fill:#212121;}.cls-2{fill:#efebe9;}</style></defs><g id="Layer_2" data-name="Layer 2"><g id="Icons"><rect class="cls-1" width="155" height="71"/><rect class="cls-2" x="13" y="13" width="129" height="45"/><path class="cls-1" d="M25.5664,25.7539H29.623c3.3829,0,4.7989,2.1856,4.7989,4.6572v7.2246a4.3511,4.3511,0,0,1-4.7989,4.6319H25.5664Zm2.4473,14.09H29.67a2.122,2.122,0,0,0,2.2813-2.28V30.4824A2.1288,2.1288,0,0,0,29.67,28.1787H28.0137Z"/><path class="cls-1" d="M36.125,42.2676V25.7539h8.8574V28.251H38.7656v4.5127h5.4727V35.26H38.7656V39.748h6.2168v2.52Z"/><path class="cls-1" d="M46.66,25.7539h2.6406v13.874h6.2168v2.64H46.66Z"/><path class="cls-1" d="M66.1016,39.8438v2.4238H57.2441V39.8438h3.1211V28.1787H57.34V25.7539h8.7129v2.4248H63.0293V39.8438Z"/><path class="cls-1" d="M74.07,25.7539h2.5684L74.3574,42.2676H70.0859L67.8047,25.7539h2.5918l1.8242,13.2266Z"/><path class="cls-1" d="M78.3652,42.2676V25.7539h8.8555V28.251H81.0039v4.5127h5.4727V35.26H81.0039V39.748h6.2168v2.52Z"/><path class="cls-1" d="M95.5488,34.9707l2.209,7.2969H95.0684l-1.9922-6.6719c-.6485-.0244-1.1758,0-1.6563,0v6.6719H88.9V25.7539H92.957a4.4681,4.4681,0,0,1,4.8008,4.7285C97.7578,32.6191,96.9648,34.18,95.5488,34.9707ZM92.8125,33.123A2.2792,2.2792,0,0,0,95.26,30.5313a2.196,2.196,0,0,0-2.3028-2.3526H91.42V33.123Z"/><path class="cls-1" d="M108.34,39.8438v2.4238H99.4844V39.8438h3.1191V28.1787H99.58V25.7539h8.7129v2.4248h-3.0254V39.8438Z"/><path class="cls-1" d="M110.043,42.2676V25.7539H118.9V28.251h-6.2168v4.5127h5.4727V35.26h-5.4727V39.748H118.9v2.52Z"/><path class="cls-1" d="M123.0039,37.707c0,.793.1426,2.4248,1.9922,2.4248a2.0465,2.0465,0,0,0,1.9922-2.28,2.9492,2.9492,0,0,0-2.0645-2.7364c-2.8574-1.2714-4.3457-1.9922-4.3457-5.04,0-2.88,1.416-4.6328,4.418-4.6328,3.5762,0,4.4394,2.6162,4.4394,4.8721v.5761h-2.4472v-.5761c0-.7188-.1934-2.4473-1.9922-2.4473-2.1133,0-1.9922,1.8711-1.9922,2.376,0,.792.4316,1.6806,2.23,2.3759,2.1133.84,4.2011,1.8721,4.2011,5.2325,0,2.832-1.4648,4.7285-4.4394,4.7285-3.5527,0-4.418-2.6406-4.418-4.8731V36.22h2.4258Z"/></g></g></svg>