<svg xmlns="http://www.w3.org/2000/svg" viewBox="0 0 155 71"><defs><style>.cls-1{fill:#212121;}.cls-2{fill:#efebe9;}</style></defs><title>Asset 7</title><g id="Layer_2" data-name="Layer 2"><g id="Web_Wireframe_2_Inverse" data-name="Web Wireframe 2 Inverse"><rect class="cls-1" width="155" height="71"/><rect class="cls-2" x="13" y="13" width="129" height="45"/><path class="cls-1" d="M31.4443,23.2354h6.083c5.0752,0,7.1993,3.2753,7.1993,6.9829V41.0527c0,3.6-2.1241,7.0552-7.1993,6.9473h-6.083Zm3.6719,21.1289H37.6a3.1812,3.1812,0,0,0,3.42-3.4195V30.3262a3.1911,3.1911,0,0,0-3.42-3.4556H35.1162Z"/><path class="cls-1" d="M57.2188,37.0576,60.53,48H56.499L53.5117,37.9932c-.9726-.0362-1.7637,0-2.4844,0V48H47.248V23.2354h6.0831c5.0752,0,7.1992,3.5273,7.1992,7.0908C60.53,33.53,59.3428,35.87,57.2188,37.0576Zm-4.1036-2.772c3.4561,0,3.6719-2.7353,3.6719-3.8872a3.2951,3.2951,0,0,0-3.456-3.5278H51.0273v7.415Z"/><path class="cls-1" d="M76.4053,44.3643V48H63.123V44.3643h4.68V26.8706H63.2666V23.2354H76.333v3.6352H71.7979V44.3643Z"/><path class="cls-1" d="M88.4658,48l-5.76-14.2544V48H78.9268V23.2354h3.7793l5.76,14.5058V23.2354H92.209V48Z"/><path class="cls-1" d="M94.7666,23.2354h3.6357V33.6738L104.27,23.2354h3.7793L102.5781,32.99,108.0488,48h-3.9951L100.166,37.2734l-1.7637,3.0957V48H94.7666Z"/><path class="cls-1" d="M114.2412,41.1606c0,1.188.2158,3.6358,2.9873,3.6358,2.7,0,2.9883-2.5557,2.9883-3.4194,0-1.0079-.3965-2.9517-3.0957-4.1036-4.2842-1.9077-6.5156-2.9878-6.5156-7.559,0-4.3194,2.124-6.9473,6.623-6.9473,5.3633,0,6.6592,3.9233,6.6592,7.3071v.8638h-3.6709v-.8638c0-1.08-.2881-3.6714-2.9883-3.6714-3.167,0-2.9873,2.8076-2.9873,3.5635,0,1.188.6475,2.5195,3.3477,3.5635,3.167,1.26,6.2988,2.8076,6.2988,7.8472,0,4.2475-2.1953,7.0908-6.6592,7.0908-5.3271,0-6.623-3.9595-6.623-7.3072V38.9292h3.6357Z"/></g></g></svg>