<svg xmlns="http://www.w3.org/2000/svg" viewBox="0 0 155 71"><defs><style>.cls-1{fill:#1c1b1b;}.cls-2{fill:#dcc7a9;}</style></defs><g id="Layer_2" data-name="Layer 2"><g id="Web_Wireframe_2_Inverse" data-name="Web Wireframe 2 Inverse"><rect class="cls-1" width="155" height="71"/><rect class="cls-2" x="13" y="13" width="129" height="45"/><path class="cls-1" d="M31.4443,48V23.2354H44.7266v3.7431H35.4033v6.7676H43.61v3.7432H35.4033v6.7314h9.3233V48Z"/><path class="cls-1" d="M56.6787,23.2354H60.53L57.1113,48H50.7041l-3.42-24.7646h3.8877l2.7353,19.833Z"/><path class="cls-1" d="M63.123,48V23.2354H76.4053v3.7431H67.082v6.7676h8.2071v3.7432H67.082v6.7314h9.3233V48Z"/><path class="cls-1" d="M88.4658,48l-5.76-14.2539V48H78.9268V23.2354h3.7793l5.76,14.5058V23.2354H92.209V48Z"/><path class="cls-1" d="M99.41,27.0859h-4.68V23.2354H108.085v3.8505h-4.68V48H99.41Z"/><path class="cls-1" d="M114.2412,41.16c0,1.1884.2158,3.6367,2.9873,3.6367,2.7,0,2.9883-2.5567,2.9883-3.42,0-1.0079-.3965-2.9512-3.0957-4.1036-4.2842-1.9082-6.5156-2.9882-6.5156-7.5586,0-4.32,2.124-6.9472,6.623-6.9472,5.3633,0,6.6592,3.9228,6.6592,7.3066v.8633h-3.6709v-.8633c0-1.08-.2881-3.6719-2.9883-3.6719-3.167,0-2.9873,2.8086-2.9873,3.5645,0,1.1875.6475,2.52,3.3477,3.5625,3.167,1.26,6.2988,2.8086,6.2988,7.8477,0,4.248-2.1953,7.0908-6.6592,7.0908-5.3271,0-6.623-3.96-6.623-7.3076V38.93h3.6357Z"/></g></g></svg>