<svg xmlns="http://www.w3.org/2000/svg" viewBox="0 0 155 71"><defs><style>.cls-1{fill:#1c1b1b;}.cls-2{fill:#dcc7a9;}</style></defs><g id="Layer_2" data-name="Layer 2"><g id="Web_Wireframe_2_Inverse" data-name="Web Wireframe 2 Inverse"><rect class="cls-1" width="155" height="71"/><rect class="cls-2" x="13" y="13" width="129" height="45"/><path class="cls-1" d="M51.8555,37.418V48H47.86V23.2354H61.1426v3.7431H51.8555v6.7676h7.955V37.418Z"/><path class="cls-1" d="M76.37,30.0742V41.16c0,4.248-2.1953,7.3076-6.6592,7.3076-4.499,0-6.623-3.06-6.623-7.3076V30.0742c0-4.2832,2.16-7.3066,6.623-7.3066S76.37,25.8984,76.37,30.0742Zm-3.7793,0c0-1.0439-.0361-3.6-2.88-3.6-2.8076,0-2.88,2.5557-2.88,3.6V41.16c0,1.0449.0722,3.6,2.88,3.6,2.8438,0,2.88-2.5547,2.88-3.6Z"/><path class="cls-1" d="M92.209,30.0742V41.16c0,4.248-2.1953,7.3076-6.6592,7.3076-4.499,0-6.623-3.06-6.623-7.3076V30.0742c0-4.2832,2.16-7.3066,6.623-7.3066S92.209,25.8984,92.209,30.0742Zm-3.7793,0c0-1.0439-.0361-3.6-2.88-3.6-2.8076,0-2.88,2.5557-2.88,3.6V41.16c0,1.0449.0723,3.6,2.88,3.6,2.8438,0,2.88-2.5547,2.88-3.6Z"/><path class="cls-1" d="M94.8027,23.2354h6.083c5.0752,0,7.1993,3.2753,7.1993,6.9834V41.0527c0,3.6-2.1241,7.0547-7.1993,6.9473h-6.083Zm3.6719,21.1289h2.4834a3.1808,3.1808,0,0,0,3.42-3.419V30.3262a3.1907,3.1907,0,0,0-3.42-3.4551H98.4746Z"/></g></g></svg>