<svg id="Layer_1" data-name="Layer 1" xmlns="http://www.w3.org/2000/svg" viewBox="0 0 204.7292 225.3591"><defs><style>.cls-1{fill:#fff;}</style></defs><title>logo_rune_bwater</title><path class="cls-1" d="M73,151c.142,10.1521,1.5861,17.5533,1.7686,27.7046.0808,4.4975-.5061,9.2475.7842,13.3929.7784,2.5006,4.5288,4.13,7.041,6.0217a78.888,78.888,0,0,0,7.7051,5.35c5.35,3.1067,10.6839,6.3429,16.3645,8.7089,1.3985.5825,4.4468-1.605,6.1336-3.1694,2.9246-2.7125,5.1843-6.1592,8.1994-8.7416.5784-.4954,3.4237,1.4515,5.0982,2.4761,6.889,4.2153,1.2333,7.2305-1.2322,10.22a106.4737,106.4737,0,0,1-9.0012,9.3227c-1.0047.953-2.5646,1.3206-3.87,1.956l.0115-.01c-7.0189,4.6905-10.6369-2.1173-15.3036-4.7685a123.0188,123.0188,0,0,1-13.5037-9.3858c-3.5574-2.71-6.8391-5.7819-10.2384-8.6987q-9.741-8.3584-19.4687-16.7322a33.9536,33.9536,0,0,1-3.383-3.3021,8.9179,8.9179,0,0,1-1.0509-2.1846c.8874-.0557,1.7764-.1764,2.6621-.1554,3.107.0737,6.2731.5764,9.287.0982,1.0849-.1721,2.5347-2.6458,2.56-4.0912.1057-6.0153-.2229-12.0409-.475-18.0593-.6266-14.9569-1.2249-29.9157-1.9832-44.8662-.3783-7.4584-1.1945-14.8939-1.6147-22.3509-.7217-12.8083-1.1923-25.6322-2.1161-38.4244-.0684-.947-2.9163-2.3648-4.493-2.3931-3.4111-.0612-6.8318.682-10.258.9926a9.7449,9.7449,0,0,1-2.4727-.415c.9217-.9018,1.7839-1.8757,2.7753-2.6931,4.8994-4.04,9.7254-8.18,14.79-12.0041,3.7971-2.8671,8.0329-5.15,11.8631-7.9771,5.1849-3.8277,10.1028-8.0158,15.26-11.8823C88.5922,12.125,92.5836,9.63,96.403,6.901c2.9538-2.1108,5.7352-4.4763,8.7978-6.4035.3537-.2226,1.9318,1.778,3.0938,2.5059,2.5262,1.5826,5.194,2.9388,7.7243,4.5152,3.9192,2.4416,7.8871,4.8312,11.6189,7.54a97.493,97.493,0,0,1,9.6669,8.0338c2.81,2.6554,5.33,5.6284,7.8728,8.553,9.3042,10.7019,6.737,24.1715,8.2387,36.6206A212.0968,212.0968,0,0,1,154.74,94.9686c-.0115,1.8005-3.0662,3.7323-4.95,5.33a54.0035,54.0035,0,0,1-6.5533,4.6523c-3.3572,2.0754-6.8293,3.9645-10.2369,5.96a1.8648,1.8648,0,0,0-.5691.7541c1.16,1.079,2.2015,2.4366,3.5764,3.1047,5.2671,2.5594,10.6613,4.8566,15.9473,7.3789.5012.2391.697,1.3482.8184,2.0888a15.2754,15.2754,0,0,1-.0244,2.3309l.5619,2.0444c.1054,1.2651.7168,2.4861.8385,3.7522.56,5.8274.9622,11.67,1.5419,17.4956.7911,7.9479,2.7356,15.9658,2.129,23.7943-.33,4.2544-4.8568,8.22-7.61,12.2339-1.2553,1.83-3.5449,5.1386-4.0883,4.8975-2.66-1.18-4.8888-3.3293-7.27-5.136.6841-.8058,1.3579-1.6206,2.0542-2.4156,2.7278-3.1148,5.7072-6.0523,8.0663-9.4243.8606-1.23.4145-3.5.2873-5.2756-.8525-11.8973-2.3881-23.7886-2.4017-35.6833-.0059-5.1988-3.6986-5.2327-6.0262-6.8246-5.1757-3.54-10.57-7.31-16.4487-9.1019-4.8657-1.483-10.5561-.3427-15.8781-.2271-9.3422.2028-18.6825.4966-28.0226.7853a23.1775,23.1775,0,0,0-6.2676.5671c-.7562.2424-1.3053,2.3212-1.2991,3.56.0443,8.9041.2492,17.8074.43,26.71ZM98.556,18.8c-2.6286,1.7632-5.2981,3.469-7.8776,5.3014C85.0779,28.08,79.48,32.0651,73.9808,36.1814c-1.37,1.0252-3.2233,2.468-3.3735,3.8768a196.8571,196.8571,0,0,0-1.2241,20.2327c-.0185,6.0447.8552,12.0872,1.0032,18.1387.1234,5.0469-.4992,10.1159-.3039,15.1562.1906,4.919.9827,9.8161,1.5617,14.7168.0582.4931.4465,1.342.719,1.3572,7.1939.4019,14.3911.9237,21.5911.9786a117.3674,117.3674,0,0,0,17.3613-.8937A69.5787,69.5787,0,0,0,127.6177,105.7c5.1248-2.08,9.8387-5.3094,14.449-8.4512,1.76-1.2,3.96-3.6217,3.8649-5.3727-.5889-10.8263-1.0171-21.7644-3.0377-32.3722-1.2793-6.7163,2.3474-14.4558-3.792-20.2034-3.7929-3.5509-7.5248-7.1721-11.426-10.6-2.8886-2.5383-5.9561-4.8835-9.0461-7.177-1.21-.898-2.8246-2.2508-4.0341-3.1491-2.4765-1.8395-4.8524-4.5023-7.18-4.4325-2.9989.09-5.91,3.1038-8.8591,4.8583Z" transform="translate(-1.0903 -0.4804)"/><path class="cls-1" d="M181.7255,57.2732a.7924.7924,0,0,1,.5978-.9478c.6971-.1586,1.41-.3424,1.8324-.072,3.0011,1.9226,5.8134,4.1368,8.7791,6.1182,2.9159,1.948,5.979,3.6759,8.89,5.6311a10.0083,10.0083,0,0,1,2.9532,2.844c3.71,6.0094-3.6144,3.0745-4.51,5.4515-.6681,1.7739-1.6656,3.4289-2.2643,5.221-.23.6889.3539,1.6088.37,2.4274.1489,7.48,0,14.9754.4356,22.4374.57,9.78,1.6427,19.53,2.4023,29.3.57,7.3327.7846,14.6991,1.57,22.0062.3293,3.0656,1.726,6.0159,2.6257,9.0221.078.2609.2024.668.08.8052-2.5072,2.8-4.9128,5.7117-7.62,8.3078-2.5629,2.4581-5.4044,4.6361-8.2054,6.8326-2.6593,2.0854-5.4835,3.9616-8.1289,6.0636-3.1753,2.5231-6.1814,5.26-9.3653,7.771-3.23,2.5481-6.805,4.6969-9.8312,7.4567-3.2329,2.9482-5.7628,6.7-9.14,9.4337-.8385.6786-3.9369-.9307-5.698-1.9863q-10.0889-6.0472-19.9578-12.4586a70.9964,70.9964,0,0,1-9.7282-7.1872c-6.35-5.8915-8.5533-5.925-15.0425.1109-2.8387,2.64-5.778,5.5693-9.2373,6.9682-1.5839.64-5.0549-1.5993-6.7744-3.3919C79.557,187.9308,88,188,90.8178,185.9953,95,183,102.5763,180.89,102.2018,173.5471c-.4166-8.1684-1.0087-16.3278-1.523-24.4912-.5263-8.3535-1.1053-16.7048-1.4574-25.0657-.0243-.5764,1.621-1.6929,2.5394-1.7493a29.5155,29.5155,0,0,1,7.596.3488c1.1014.223,2.7362,1.7558,2.7628,2.7314.259,9.5124-.1431,19.0536.3935,28.5443.4634,8.1954,1.7868,16.3535,3.0478,24.4788.1615,1.0406,2.1623,1.9186,3.4416,2.64,4.4009,2.4831,8.9954,4.6484,13.2617,7.3383,5.1056,3.2192,9.88,6.9627,14.9724,10.2048.8984.5719,2.9874.2641,3.9524-.4328,3.8612-2.7884,7.5165-5.8652,11.209-8.883,3.8637-3.1576,7.6172-6.4531,11.5384-9.5363,4.5356-3.5662,9.0851-7.1365,13.84-10.3961,6.0686-4.16,3.3238-10.0056,3.171-15.2779-.1232-4.2513-1.0745-8.4727-1.3358-12.7272-.5339-8.69-.7815-17.3976-1.2767-26.0906-.4708-8.264-.8924-16.54-1.7287-24.7714-.903-8.8872-2.2638-17.7278-3.4015-26.5917q-.0046-.036-.0127-.0715Z" transform="translate(-1.0903 -0.4804)"/><path class="cls-1" d="M28.7163,158.3455a171.5769,171.5769,0,0,0,.8889,20.618c.2232,1.7956,3.4681,3.2757,5.4156,4.7842,3.9789,3.0821,7.9639,6.1616,12.0485,9.1,4.6218,3.3254,9.1955,6.77,14.1006,9.63,2.9424,1.7157,6.7649,1.9475,9.6522,3.7234,2.1236,1.3062,4.7751,4.0793,4.71,6.119-.1237,3.8491-8.9437,5.5359-12.2226,2.9931-4.3854-3.401-9.0782-6.4049-13.6323-9.589-4.262-2.98-8.4779-6.0275-12.7812-8.9462-6.0944-4.1335-12.3326-8.0626-18.2928-12.3782-.9071-.6567-.8568-2.92-.8947-4.4483-.3351-13.5319-.5115-27.068-.89-40.5985-.4282-15.3284-1.1593-30.65-1.4545-45.98-.1-5.1769-6.95-11.4589-12.0439-10.4221-.61.1242-1.8426-.4013-1.98-.8643-.2781-.9409-.4272-2.4974.1147-3.0037C3.8677,76.8292,6.56,74.8773,9.119,72.7774c3.5481-2.9113,7.0411-5.89,10.6126-8.7721A15.0536,15.0536,0,0,1,24.18,61.0832c.7383-.2369,2.8777,1.1594,2.9058,1.8728.2381,6.0595.1362,12.1323.1362,18.2012Z" transform="translate(-1.0903 -0.4804)"/><polygon class="cls-1" points="110.9 223.761 110.936 223.813 110.912 223.752 110.9 223.761"/><path class="cls-1" d="M104.7664,106.69c-9.1913,2.2694-5.55-5.0512-5.7248-8.5526-.5358-10.7572.3865-21.6326-.8041-32.2893-.4832-4.3247-2.32-10.3912-8.9548-11.2176-.4119-.0513-1.0977-1.3981-1.0058-1.49,2.5033-2.494,5.5884-4.5637,7.5345-7.4154,2.2313-3.27,3.4565-7.2243,5.1418-10.8707.2294-.4963.6484-1.35.8828-1.3189a3.9475,3.9475,0,0,1,2.435.8828c1.9243,2.4637,3.551,5.159,5.4634,7.6328,2.7272,3.5279,5.6225,6.9258,8.3857,10.4267.1363.1727-.2338.8468-.4838,1.2072-3.0072,4.3354-6.8631,8.3193-8.8015,13.0848-1.5885,3.9052-1.271,8.7474-1.1377,13.1543.2121,7.0127.9508,14.0108,1.563,21.0066.74,1.0687,1.2739.6461,1.38,1.0981C111.8967,107.383,108.5528,107.3488,104.7664,106.69Z" transform="translate(-1.0903 -0.4804)"/><path class="cls-1" d="M98.5564,18.8l0,.0005Z" transform="translate(-1.0903 -0.4804)"/></svg>