<svg id="Layer_1" data-name="Layer 1" xmlns="http://www.w3.org/2000/svg" viewBox="0 0 290.9442 162.7844"><defs><style>.cls-1{fill:#fff;}</style></defs><title>logo_type_bwater</title><path class="cls-1" d="M110.1373,131.7838q0-9.1993-.0012-18.3987c-.0072-7.6784-.0515-15.3568-.02-23.035.0115-2.7737.1874-5.5471.32-8.3191.0119-.2477.2574-.4843.3944-.7261.2552.2574.6825.4825.7381.7775.3938,2.0919.7069,4.1989,1.0583,6.299a7.4628,7.4628,0,0,0,.2548.8745,6.3182,6.3182,0,0,0,.7716-.5213c2.1467-1.9487,4.2753-3.9175,6.428-5.86a12.6882,12.6882,0,0,1,2.1586-1.71,1.6057,1.6057,0,0,1,1.4742.0862c3.03,2.67,5.8181,5.5972,7.09,9.52.4649,1.4334.2038,3.1056.2529,4.67.0852,2.7145.1727,5.4291.226,8.1442.1279,6.5225.2154,13.0458.36,19.5679.0921,4.1485.29,8.2946.3764,12.4432a50.2467,50.2467,0,0,1-.1617,5.9632c-.0619.6282-.7281,1.2578-1.2349,1.771-2.6345,2.6673-5.3408,5.2643-7.9566,7.9495-2.6107,2.68-5.1495,5.43-7.7094,8.1593-1.5881,1.693-3.4449,1.0634-5.2848.6514-4.4209-.99-6.9287-4.3062-9.3476-7.7146-.6031-.85-1.05-1.8117-1.6629-2.653-.3843-.5273-.739-1.3037-1.5316-.1174-1.8063,2.7034-3.7968,5.2846-5.7332,7.9-1.1037,1.4908-2.2266,2.969-3.4,4.4046-.1565.1914-.6615.0981-1.005.1366.1155-1.7517-1.5747-1.3343-2.3892-1.8044-2.0123-1.1613-4.2307-1.9636-6.3588-2.9267s-4.2185-2.0084-6.3748-2.8985a40.2736,40.2736,0,0,0-4.94-1.6577,10.3309,10.3309,0,0,0-2.6814-.1615c-3.1962.0149-6.3525.159-9.3466,1.5573a12.1289,12.1289,0,0,0-5.9778,5.2266c-.8774,1.64-1.9094,3.1971-2.8912,4.78a2.2165,2.2165,0,0,1-.5332.4432,6.99,6.99,0,0,1-.2658-.7333c-.5426-2.2152.3592-4.21,1.0406-6.2094a44.1164,44.1164,0,0,1,2.3115-5.7,9.4465,9.4465,0,0,1,2.1733-2.3477,17.4918,17.4918,0,0,1,3.053-2.5571c2.8462-1.6129,5.5852-3.4616,8.9716-3.9533a27.6665,27.6665,0,0,0,4.9187-1.4912c.2164-.0747.3887-.5721.4059-.8835.168-3.0409.3564-6.0826.4225-9.1266.0579-2.6639.04-5.3343-.0793-7.9957-.127-2.825-3.8337-5.9051-6.6338-5.95-2.5773-.0411-4.8328.4426-6.6316,2.3991a1.815,1.815,0,0,1-.5964.2808,1.6959,1.6959,0,0,1-.1115-.6388,19.5078,19.5078,0,0,1,4.6156-8.528,30.6953,30.6953,0,0,1,3.6408-3.2622,3.7532,3.7532,0,0,1,1.73-.5984c1.1591-.177,2.3391-.2158,3.5-.386a.8735.8735,0,0,0,.5444-.6326c.1571-3.2008.2993-6.403.3778-9.6065a18.8341,18.8341,0,0,0-.198-3.9551c-.18-.9444-.74-1.5357-1.7454-.4189-1.1959,1.3277-2.6873,2.3947-3.8427,3.7518-.9914,1.1645-1.6073,2.6426-2.5518,3.8555a7.6481,7.6481,0,0,1-2.0271,1.45.5491.5491,0,0,1-.5174-.15c-.077-.1115-.0125-.3822.0737-.5357,1.8132-3.229,3.5681-6.4937,5.48-9.6638,2.2331-3.7033,4.5921-7.3311,6.9238-10.9742a26.5461,26.5461,0,0,1,2.5857-3.6781,15.3406,15.3406,0,0,1,3.2356-2.5526,1.61,1.61,0,0,1,1.5253.4143,57.3435,57.3435,0,0,1,2.8332,5.1279,19.4037,19.4037,0,0,1,1.6069,10.906,60.25,60.25,0,0,0-.2,6.1237c-.0167,4.2222.05,8.4449.0212,12.6669-.0267,3.8663-.2155,7.7325-.1883,11.5978.0428,6.0756.2153,12.15.31,18.2254.0136.8686-.1324,1.7388-.1424,2.609-.0062.5365-.0763,1.4.197,1.5525A20.1528,20.1528,0,0,0,85.3,144.1983a15.858,15.858,0,0,0,.7493-2.8683,38.5356,38.5356,0,0,0-.1064-3.95c-.2339-8.777-.5518-17.5531-.6511-26.3317-.0425-3.76.4615-7.524.5523-11.29.07-2.9084-.197-5.8241-.1608-8.7346.024-1.9263.3131-3.85.5009-5.7729a1.265,1.265,0,0,1,.2469-.6669,13.4768,13.4768,0,0,1,.9978-.9718,4.3794,4.3794,0,0,1,.4835,1.2c.174,2.1052.2745,4.2163.4281,6.3234a3.1272,3.1272,0,0,0,.3013.8157c.1928-.1666.3888-.33.5779-.5q3.3877-3.058,6.7753-6.1162c.7657-.6887,1.58-1.326,2.3192-2.041,1.1938-1.1544,1.8672-.9307,2.8.52,1.8462,2.8718,3.9238,5.5964,5.7255,8.4939.305.4905,1.4479,1.2539.4283,2.2247-.1614.1536-.0271.6163-.0318.9361-.08,5.4379-.2891,10.8779-.2045,16.3132.0883,5.67.542,11.3346.6755,17.0052a18.7344,18.7344,0,0,0,2.2371,9.07,6.1319,6.1319,0,0,0,.54.7,7.627,7.627,0,0,0,.08-.7818c.0068-1.998.0037-3.996.0037-5.994Zm-15.3462-9.699-.3367.0025c0-3.1364-.0539-6.274.0167-9.4087.0587-2.6057.3124-5.2067.387-7.8124.05-1.75.3451-3.646-.2024-5.2222a26.29,26.29,0,0,0-3.3206-5.7274c-.318-.4736-1.3508-.9646-1.7295-.78A2.3454,2.3454,0,0,0,88.56,94.8981c-.0566,2.3446.18,4.6955.1414,7.0414-.0857,5.2215-.33,10.4407-.393,15.6622-.0369,3.0411.2257,6.0852.2146,9.1275-.01,2.7689-.1669,5.54-.3355,8.3049a61.1219,61.1219,0,0,1-.6369,6.9306c-.4827,2.7261-.4048,3.16,2.03,4.3646a12.0752,12.0752,0,0,1,2.9047,1.5213c1.0329.95,1.616.3824,2.1874-.32.9646-1.1859,1.98-2.2806,1.0975-4.1328a10.8631,10.8631,0,0,1-.9369-4.3646C94.73,133.3851,94.7912,127.7344,94.7912,122.0848Zm23.455-24.2083.3806-.0172a2.6245,2.6245,0,0,0-.1865-.9271c-1.3807-2.1015-2.7947-4.1812-4.21-6.26a.3034.3034,0,0,0-.2921-.0107,2.4177,2.4177,0,0,0-1.17,2.2752c.3368,3.3157.5424,6.6478.6943,9.9783.1038,2.276.0151,4.56.0425,6.84.0267,2.2255.1623,4.4518.1236,6.6755-.0644,3.7068-.4171,7.4178-.3008,11.1161a53.3039,53.3039,0,0,1-.6415,11.3785c-.3761,2.0581-.8357,4.3776,1.2289,6.2035,1.593,1.409,2.8982,3.1419,4.38,4.6844.0594.0619.8848-.3345.9-.5494.2151-3.0475.5595-6.1066.4719-9.1513C119.2618,126.0319,118.7315,111.9548,118.2462,97.8764Z" transform="translate(-1.9341 -1.8202)"/><path class="cls-1" d="M168.9422,18.7293q.446,9.47.9011,18.938c.0813,1.6552.23,3.3071.3173,4.9621.0812,1.53.47,1.7889,1.7053.8941,1.71-1.2386,3.3314-2.5992,5.0027-3.8921a18.8566,18.8566,0,0,1,6.8272-3.5382c.2211-.0568.7039.3077.8331.5847q1.4835,3.18,2.8453,6.4163a1.0985,1.0985,0,0,1-.1935,1.001c-1.5421,1.28-3.1362,2.4981-4.7159,3.7332q-1.257.9827-2.52,1.9579c.9014.0045,1.8028.005,2.7042.0141,2.5234.0253,5.0079.1494,7.15,1.778,2.8881,2.1958,6.0529,4.0946,8.6391,6.5962,1.6358,1.5823,2.4785,4.0071,3.5925,6.0989.8791,1.6507,1.5716,3.4007,2.451,5.0513,1.18,2.2156,2.34,4.4585,3.7281,6.5433,1.8753,2.8162,4.1567,5.3755,5.888,8.27,1.2487,2.0875,3.2327,2.8439,5.0692,3.9963,2.2073,1.385,4.2028,3.1645,6.5217,4.3a52.1338,52.1338,0,0,0,8.97,3.3714,56.3918,56.3918,0,0,0,7.4358,1.0653c1.7185.2347,3.4323.5044,5.1525.7251,3.1231.4007,5.9332-.8477,8.7732-1.7956,2.9916-.9985,6.1637-1.7914,8.81-3.406a66.3168,66.3168,0,0,0,10.0088-7.7191C276.62,83.05,277.66,80.64,279.2037,78.72c2.8385-3.5294,3.6019-7.7933,4.2629-12.0278a63.5052,63.5052,0,0,0,.3-8.411,32.761,32.761,0,0,1,.0173-4.0444c.399-2.7016-.7611-5.0632-1.5742-7.4376a63.8,63.8,0,0,0-4.1836-9.7374c-1.1569-2.133-3.0022-3.8947-4.5541-5.8108-1.0456-1.291-2.0505-2.6243-3.1941-3.8239-1.1069-1.1611-2.4519-2.0971-3.5441-3.27a27.4024,27.4024,0,0,0-8.5409-5.7384A24.9641,24.9641,0,0,0,242.7665,15.95a14.6146,14.6146,0,0,0-6.65,2.5588c-1.9075,1.4633-4.3659,2.2025-6.2977,3.6417a70.9657,70.9657,0,0,0-7.6162,6.6223,19.4958,19.4958,0,0,0-3.0761,4.5689c-.9575,1.7569-1.6779,3.6429-2.504,5.4715a41.1665,41.1665,0,0,0-1.9309,4.3393,49.8893,49.8893,0,0,0-2.25,8.3829,96.5313,96.5313,0,0,0-.3361,9.8653,2.4614,2.4614,0,0,1-.2419.6944c-.1481-.1814-.3925-.3451-.43-.547-.5774-3.1272-1.4681-6.2471-1.582-9.3941-.0994-2.7452.6723-5.524,1.0813-8.2847a39.2139,39.2139,0,0,1,.839-4.9465,53.5836,53.5836,0,0,1,2.1079-5.7319c1.0645-2.5877,2.1076-5.1952,3.3824-7.68a13.0566,13.0566,0,0,1,2.46-2.5869,25.7284,25.7284,0,0,1,1.9389-2.0693c1.7031-1.4205,3.4118-2.85,5.2348-4.1072,2.5391-1.7508,5.1146-3.4739,7.81-4.963a19.4921,19.4921,0,0,1,5.3587-1.9714,56.2775,56.2775,0,0,1,8.5236-1.1772,21.0612,21.0612,0,0,1,11.1228,2.4421c.8484.4491,1.87.5645,2.734.9917,1.8054.8928,3.6046,1.8161,5.3193,2.8686a43.6366,43.6366,0,0,1,4.338,3.0968,57.1314,57.1314,0,0,1,5.686,4.8478,75.5242,75.5242,0,0,1,5.2934,6.4649c1.4565,1.8952,2.832,3.8563,4.1645,5.8411a8.2123,8.2123,0,0,1,.943,2.241c.6868,2.3136,1.4119,4.6228,1.9392,6.9747.5778,2.5776.9712,5.1975,1.4091,7.8051.4269,2.5421.9089,5.0808,1.1875,7.6405A32.54,32.54,0,0,1,291.21,72.913c-.7741,2.5417-1.84,4.9977-2.833,7.4687-.8558,2.1293-1.715,4.2646-2.7312,6.3188a14.1243,14.1243,0,0,1-1.9961,2.5531c-.8314.9971-1.7185,1.9486-2.5308,2.9605a25.937,25.937,0,0,1-8.978,7.2831c-2.1359,1.0356-4.0973,2.4745-6.2935,3.3312a36.1585,36.1585,0,0,1-8.3368,2.4007,63.31,63.31,0,0,1-10.759.2963c-3.9552-.1672-7.8971-1.0464-11.8389-1.0078-3.1958.0314-5.956-1.21-8.7364-2.1823A67.2305,67.2305,0,0,1,215.98,97.2321c-2.1886-1.2169-4.2145-2.7269-6.3083-4.1133a22.77,22.77,0,0,1-3.6-2.4811,27.1942,27.1942,0,0,1-3.6907-4.55c-1.8565-2.881-3.5945-5.8457-5.2381-8.854-1.2175-2.2284-2.13-4.6225-3.3216-6.8663a40.8742,40.8742,0,0,0-3.299-5.3371,24.2342,24.2342,0,0,0-6.0925-5.9025,13.3145,13.3145,0,0,0-6.3025-2.457c-1.9293-.1486-3.8552-.3889-5.7687-.68-1.2441-.1893-1.3792.52-1.3469,1.4233.0854,2.391.1957,4.7811.29,7.1718.0524,1.3269,2.4552,2.9411,3.6947,2.5005a2.25,2.25,0,0,1,.7642.01c-.1053.3985-.0921.902-.3362,1.1775-1.1419,1.2889-2.356,2.5137-3.5414,3.7641a10.4079,10.4079,0,0,1-1.6781,1.7181,1.899,1.899,0,0,1-1.6833.1681c-1.8406-1.3622-3.5472-2.9037-5.3518-4.3173-1.0012-.7842-.5307-1.7062-.5244-2.66.0156-2.3552-.1394-4.7113-.215-7.0674-.1344-4.1959-.2345-8.3931-.3962-12.588-.3069-7.9646-.6529-15.9277-.97-23.8919-.09-2.2716-.1-4.547-.2317-6.8157a2.0984,2.0984,0,0,0-.679-1.382c-1.74-1.369-3.5441-2.6585-5.354-3.9355-.1334-.0941-.4964.13-.75.2147-.3639.1223-.7249.2531-1.0871.38.0332-.3375-.0485-.7522.118-1,1.1383-1.695,2.3023-3.3745,3.5142-5.0176a11.884,11.884,0,0,1,1.9384-2.1364,1.46,1.46,0,0,1,1.3373.19c1.5233,1.2234,2.97,2.5418,4.4482,3.8216a54.7184,54.7184,0,0,1,4.1983,3.7095c.4428.4713.3844,1.4886.41,2.2614C168.9829,15.3676,168.9447,17.0486,168.9422,18.7293ZM170.771,49.643h.036c0,.5976-.0226,1.1963.0076,1.7924.0217.4276.114.8516.1747,1.2772a5.9425,5.9425,0,0,0,1.3612-.49c2.7261-1.8163,5.4549-3.6323,8.099-5.5631a1.9125,1.9125,0,0,0,.2037-1.7391c-.4112-.9822-1.2123-1.7991-1.64-2.7772-.5437-1.2445-1.13-.7661-1.8082-.2356a44.7918,44.7918,0,0,1-5.1235,3.8993,2.1743,2.1743,0,0,0-1.3175,2.4066C170.804,48.6871,170.771,49.1665,170.771,49.643Z" transform="translate(-1.9341 -1.8202)"/><path class="cls-1" d="M49.1806,66.6145c.2233-2.9084.5213-5.8136.6455-8.7263.0926-2.1713-.1055-4.3537-.0564-6.5285.0771-3.4133.3386-6.8238.36-10.2365.0164-2.6125-.2546-5.2255-.3323-7.84q-.2463-8.2936-.4137-16.5894c-.038-1.943.0135-3.89.0906-5.8323.0525-1.3232-1.0028-.8318-1.6059-.9848-.12-.03-.6264.69-.6225,1.061.0642,6.1444.1792,12.2883.2878,18.4323.06,3.3777.1552,6.7549.1864,10.1328.042,4.5383.1186,9.08-.0238,13.6132a3.7929,3.7929,0,0,1-1.6479,2.2921c-2.1752,1.6011-4.4733,3.0355-6.7281,4.528a9.1969,9.1969,0,0,1-1.47.8763,2.7512,2.7512,0,0,1-1.0208.007,6.56,6.56,0,0,1,.0659-.8664,7.32,7.32,0,0,0,.3183-1.24c.0554-3.1747.1472-6.3514.0852-9.5248-.12-6.1376-.39-12.2725-.49-18.41-.0774-4.761.0351-9.5248.0129-14.2871a5.5,5.5,0,0,1,3.7589-5.6184,19.7943,19.7943,0,0,0,2.732-1.5237C46.24,7.57,49.1105,5.6948,52.0919,4.0153a30.1817,30.1817,0,0,1,4.9247-2.067c1.8786-.6533,5.8545,1.3023,6.8706,3.3763.8032,1.6393,1.9854,3.1141,2.6336,4.8023a23.052,23.052,0,0,1,1.3333,5.6223,61.6075,61.6075,0,0,1,.1511,6.4876c.0194,2.7942-1.2983,5.1407-2.5674,7.499-.0561.1043-.13.1988-.19.3017-1.6073,2.7923-1.55,2.6284,1.46,3.5853a8.1786,8.1786,0,0,1,4.5054,4.4095,52.5674,52.5674,0,0,1,2.075,5.3583,2.81,2.81,0,0,1,.2506.6667c.4339,4.53,1.16,9.06,1.175,13.5917a49.8113,49.8113,0,0,0,.9354,9.7751c.5417,2.6909-.9447,4.7373-2.7127,6.6589a60.2688,60.2688,0,0,0-4.3714,5.4992c-2.0528,2.834-4.0973,5.6825-5.9712,8.6353-1.7868,2.8156-3.327,5.7866-5.0315,8.6561a9.88,9.88,0,0,1-1.4345,1.5515c-.1475-.7827-.356-1.56-.43-2.3493-.1539-1.6457.1232-3.4383-.45-4.9084a11.93,11.93,0,0,0-3.0362-3.8982,16.4949,16.4949,0,0,0-4.0939-3.0049,12.8057,12.8057,0,0,0-4.3326-.9693c-3.269-.3064-6.553-.6166-9.83-.6117a11.01,11.01,0,0,0-6.4222,2.2919c-2.4019,1.732-4.94,3.2756-7.3341,5.0178a23.8959,23.8959,0,0,0-2.6219,2.6229c-.22.2207-.479.4024-.72.6021-.18-.3182-.5548-.6706-.506-.9487.2559-1.4585.59-2.9054.951-4.3429.87-3.4693,2.0126-6.8893,4.2951-9.6571a18.0026,18.0026,0,0,1,4.8682-3.7663A49.802,49.802,0,0,1,32.03,72.0859a25.7334,25.7334,0,0,1,10.8309-1.68c2.056.0365,4.1072.3053,6.1636.4107a.88.88,0,0,0,.6333-.5867c.0006-1.1977-.0956-2.3954-.1591-3.5932ZM61.4723,55.2512l.4491-.11c-.7223-3.2093-1.2784-6.47-2.2462-9.6033a7.9519,7.9519,0,0,0-2.6111-3.4423,21.4407,21.4407,0,0,0-3.96-2.07c-1.0847-.5542-2.0419-.1806-2.0418.8153,0,5.1939-.0163,10.3879.0081,15.5817.0209,4.4364.0847,8.8727.14,13.3089.0165,1.3314.2016,2.4311,2.0506,2.18a3.1616,3.1616,0,0,1,1.8126.7865c1.9735,1.3592,3.9009,2.7853,5.8583,4.1682.2322.164.6568.3793.79.285a1.1421,1.1421,0,0,0,.3464-.8285c.0376-2.6211.1227-5.2455.0343-7.8636C61.9541,64.0541,61.6887,59.6535,61.4723,55.2512Zm-3.017-30.1736c-.6139-2.149-1.2091-4.3036-1.8461-6.4458a17.6351,17.6351,0,0,0-4.6858-7.5573c-.272-.2686-.8725-.23-1.3259-.2624-.0715-.005-.245.3748-.2449.5767.0015,2.734-.04,5.47.0572,8.2016.1992,5.6048.4732,11.207.7282,16.81a3.4263,3.4263,0,0,0,.2125.7571c.1383-.1644.2653-.34.4167-.4911.6926-.6923,1.4288-1.3447,2.0822-2.0718C56.2564,31.9157,58.3109,29.0678,58.4553,25.0776Z" transform="translate(-1.9341 -1.8202)"/><path class="cls-1" d="M183.3932,101.5776c2.0734,0,4.1474-.0271,6.22.0237a3.59,3.59,0,0,1,1.18.5013,9.2934,9.2934,0,0,0-.9236-.1578,1.161,1.161,0,0,0-.415.138c.1317.2121.2181.5506.4022.6165,1.6137.5782.5165,1.1073.0406,1.7491-.4663.6288-.6206,1.6566-1.2073,1.9909a10.6585,10.6585,0,0,1-3.33,1.0131c-1.45.2672-2.95.2813-4.3827.6068-.3422.0777-.7207.96-.7126,1.4664.082,5.1075.2949,10.2131.36,15.3206.0456,3.5666-.1012,7.1352-.125,10.7031-.02,3.0662.9686,4.5464,3.721,5.35.4333.1266,1.1621-.3576,1.6011-.7368.8388-.7245,1.5457-1.6,2.3576-2.3589a.93.93,0,0,1,.856-.1683.87.87,0,0,1,.2132.8361c-1.52,2.37-2.9987,4.776-4.6814,7.0282a20.3632,20.3632,0,0,1-3.3413,3.218,1.561,1.561,0,0,1-1.4486.1909q-4.1145-3.3262-8.081-6.8327a2.3408,2.3408,0,0,1-.4242-1.5289c-.1448-4.5944-.1651-9.194-.3869-13.7842-.2844-5.8861-.6978-11.7665-1.1448-17.6426-.03-.391-.786-.996-1.2492-1.0412-3.1392-.306-6.2924-.4671-9.434-.753-.234-.0213-.6722-.8174-.5744-.969a14.1339,14.1339,0,0,1,1.931-2.4631c.8551-.837,1.8552-1.5254,2.7879-2.2836,1.391-1.1307,2.9344-.5752,4.3958-.3062,1.3776.2535,2.0632.1168,1.9132-1.55-.3209-3.5666-.4893-7.1468-.7632-10.7181a1.4761,1.4761,0,0,0-.5651-.9248A31.4125,31.4125,0,0,0,164.8,85.7682c-1.2665-.7114-.8324-1.8211-.4248-2.4878a39.8553,39.8553,0,0,1,3.5694-4.7133c.1708-.2036.9659-.1274,1.2971.0881,1.7127,1.1145,3.3675,2.3178,5.0445,3.4873a19.5555,19.5555,0,0,0,3.2319,2.1781c1.4.6,1.0375,1.7021,1.12,2.6794.3222,3.8142.5919,7.6328.8808,11.45.003.04-.0038.0807.0023.12.1724,1.0968-.0206,2.6327.621,3.1681.6589.55,2.1334.1219,3.251.1219Z" transform="translate(-1.9341 -1.8202)"/><path class="cls-1" d="M33.8931,21.8835q.3185,9.9736.6342,19.9473c.1464,4.8351.3221,9.67.37,14.5067a13.6191,13.6191,0,0,1-.5641,5.22c-.6921,1.6649-1.54,3.56-3.76,4.099a9.9934,9.9934,0,0,0-2.3911,1.3665c-1.8387,1.0758-3.682,2.1438-5.5171,3.2256a8.9955,8.9955,0,0,0-.7836.5795c.1091-.5254.2385-1.0476.3238-1.5769a82.6834,82.6834,0,0,0,1.351-8.881C23.76,56.33,22.01,52.724,20.19,49.224c-1.5281-2.9382-6.0447-4.119-9.0071-2.426-.0329.0188-.05.08-.0809.0852q-1.3728.2365-2.747.4646a13.071,13.071,0,0,1,.7818-3.0425,23.6621,23.6621,0,0,1,2.2571-2.9622c1.8945-2.5167,3.9966-4.7342,7.3123-5.2786,1.3085-.2148,2.62-.4141,3.9184-.68.1638-.0336.3658-.4366.3581-.6618-.0592-1.7175-.3154-3.4417-.2206-5.1477a24.6726,24.6726,0,0,1,.8989-6.4083c.3934-1.1765,1.8088-2.0813,2.8976-2.9392,1.7646-1.39,3.62-2.6688,5.484-3.9261a1.5622,1.5622,0,0,1,1.3009-.0911,1.4192,1.4192,0,0,1,.6926,1.0308c.0762,1.5436.0321,3.0932.0321,4.6406Z" transform="translate(-1.9341 -1.8202)"/><path class="cls-1" d="M140.2309,131.6578a49.6932,49.6932,0,0,0-.0367-5.27c-.25-2.3366.23-4.197,2.21-5.6765,2.9-2.1668,5.6845-4.4886,8.5333-6.7251.6879-.54,1.51-.9258,2.1368-1.5233.866-.8261,1.4035-.4807,2.1868.1674a77.2246,77.2246,0,0,0,6.991,5.3965c1.7672,1.149,2.11,2.8353,2.2751,4.5257.5119,5.2514.8542,10.5206,1.1861,15.7877a5.5414,5.5414,0,0,0,3.9037,4.6229,1.9954,1.9954,0,0,1-.011,1.4934c-1.2544,1.5494-2.6377,2.9944-3.9782,4.4738a3.4912,3.4912,0,0,1-.27.2233c-.6075.5462-1.3777,1.6437-1.7844,1.5222-.7493-.2238-1.3046-1.1454-1.9043-1.8093a27.1107,27.1107,0,0,1-2.3207-2.7167c-.9847-1.4334-1.7206-.9115-2.5782.0986-.9019,1.0623-1.8812,2.0589-2.8266,3.0841-.889.9641-1.8.6586-2.7356.0671-2.4261-1.5343-5.06-2.821-7.2253-4.6606-1.6731-1.4214-3.5993-2.976-3.3729-5.7719.1961-2.4217.0407-4.8719.0407-7.3095Zm8.6185-9.264-.1192.0135c.2773,3.2414.548,6.4834.8349,9.7239.1321,1.4929.2587,2.9883.4688,4.4711a1.948,1.948,0,0,0,.6343,1.1793c1.4752,1.1307,3.0063,2.189,4.5255,3.2617.6024.4253,1.2263.82,1.84,1.229-.0865-.7079-.2112-1.4135-.2533-2.1241-.28-4.73-.5314-9.4614-.8251-14.19-.0407-.6556-.0443-1.5309-.4415-1.9092a66.7317,66.7317,0,0,0-5.4034-4.64c-1.0494-.8047-1.54-.383-1.2832.952A10.94,10.94,0,0,1,148.8494,122.3939Z" transform="translate(-1.9341 -1.8202)"/><path class="cls-1" d="M93.3689,13.4705c.2248,6.5324.4674,13.0642.6639,19.5974.0613,2.0366-.05,4.0781.0008,6.1153.1335,5.4114.3361,10.8212.4607,16.2328a45.5676,45.5676,0,0,1-.1009,6.6334c-.3093,2.49.9455,3.9811,2.6776,5.2973,1.17.889,1.6527,1.6979.5124,3.0433-1.48,1.7466-2.7661,3.657-4.1822,5.46a.9336.9336,0,0,1-.903.1326c-2.0977-1.5473-4.1754-3.1235-6.2109-4.7513a1.8564,1.8564,0,0,1-.6733-1.2649c.051-2.8291.2949-5.6566.29-8.4843-.0093-5.1417-.1461-10.2832-.2336-15.4248q-.1355-7.9619-.2784-15.9237c-.0517-2.9286-.3064-5.8716-.0973-8.7813.1792-2.4929-.9036-3.9972-2.7408-5.355-.9541-.7051-1.6455-1.7966-3.074-1.4924-.0371.0079-.2333-.315-.1919-.4177.5543-1.3738,1.1095-2.7487,1.7229-4.0966C81.5,8.9145,82.166,7.91,82.5778,6.8082c.4225-1.1307,1.2017-1.3054,2.019-.7805q4.3168,2.772,8.4987,5.7506c.4138.2936.5053,1.0415.746,1.5792Z" transform="translate(-1.9341 -1.8202)"/><path class="cls-1" d="M250.3379,58.1573c-3.59.1633-7.1812.3071-10.768.5247-.3088.0187-.8465.5315-.8414.8067.0623,3.3391.2348,6.676.3225,10.015.109,4.15.3044,8.3052.1807,12.45a4.4138,4.4138,0,0,0,1.8766,3.9842c1.9058,1.4918,3.8267,2.97,5.6517,4.5575,1.205,1.0479,1.97.5726,2.7158-.4731.7411-1.0394,1.4686-2.0885,2.2167-3.1228a.5447.5447,0,0,1,.393-.2216c1.3307.1215,2.4224,2.6743,1.6145,3.7735-1.2811,1.743-2.5128,3.53-3.9119,5.1729a1.9141,1.9141,0,0,1-1.84.305c-1.8546-1.403-3.5864-2.9706-5.337-4.5082-1.5715-1.38-3.2176-2.6974-4.641-4.22-2.07-2.214-3.9743-4.5834-5.9316-6.9016-.1294-.1533-.1089-.4332-.1582-.6542a5.3512,5.3512,0,0,1,1.1123-.0665c1.04.15,2.1356.5246,2.7265-.7806a2.6106,2.6106,0,0,0,.1884-1.1269c-.2254-6.9382-.4318-13.8774-.7156-20.8134-.2731-6.6748-.6374-13.3458-.9441-20.0193a2.3073,2.3073,0,0,0-3.2284-2.0609,7.9594,7.9594,0,0,1-1.528.2706,6.6219,6.6219,0,0,1,.7983-1.2135c2.1629-2.1078,4.3514-4.1894,6.5424-6.2682,2.2663-2.15,4.5295-4.3043,6.8243-6.4238,1.176-1.0862,2.411-2.1092,3.64-3.1355a.65.65,0,0,1,.6052-.059,55.46,55.46,0,0,1,4.6264,3.3881,41.4,41.4,0,0,1,3.101,3.4461,19.1964,19.1964,0,0,1,2.5918,2.79,14.0834,14.0834,0,0,1,1.8942,4.58,85.2971,85.2971,0,0,1,.8239,8.512c.1962,2.7135.192,5.4448.4712,8.1481.267,2.5864-1.34,3.9356-3.0605,5.2779-.9486.74-1.9424,1.4224-2.8958,2.1566-.0953.0734-.1245.44-.0617.48,1.0035.6494,2.0227,1.2752,3.0484,1.8895.3915.2344.8063.4307,1.2146.6362,2.225,1.12,1.3632,3.33,1.5947,5.0289.4658,3.419.51,6.8949.7442,10.3462.0666.982.1788,1.9612.2859,2.94.2166,1.9791-.818,3.3463-2.1778,4.5813-.3012.2735-.4253.7515-.7383,1-.4073.324-1.1991.8317-1.3428.7064-.6879-.5994-2.1021-1.0271-.9951-2.4187.6837-.8595,1.2708-1.7968,1.9667-2.6455,1.2285-1.498.3766-3.1073.3093-4.669-.1217-2.82-.6267-5.6714-.3458-8.4464.3049-3.0115-1.4147-4.27-3.4779-5.5535A13.9113,13.9113,0,0,0,253.74,58.94c-1.0625-.4492-2.1919-.74-3.2932-1.098Zm-12.045-4.6532c0,2.5449.0565,2.5949,2.4729,2.4891,1.4329-.0627,2.8661-.13,4.3-.1583,1.7284-.0337,3.6147.41,5.1492-.142a32.2036,32.2036,0,0,0,6.4068-3.5757c1.2684-.8245,2.42-1.7222,2.1734-3.732-.564-4.5988-.9408-9.23-1.15-13.8584a6.0862,6.0862,0,0,0-1.8339-4.2661c-2.1283-2.1835-4.2-4.4225-6.3184-6.6154-1.3065-1.3522-1.9766-1.2091-3.3069.1684-1.9141,1.982-3.9762,3.82-5.9522,5.7438-.774.7534-2.0308,1.5091-2.1279,2.37a72.609,72.609,0,0,0-.3726,9.3973C237.8046,45.4288,238.1,49.5291,238.2929,53.5041Z" transform="translate(-1.9341 -1.8202)"/><path class="cls-1" d="M124.5965,51.2065c0,3.4111-.0128,6.9213.0047,10.4313a5.2754,5.2754,0,0,0,3.2312,4.8989,2.5683,2.5683,0,0,0,.3453.0632c.5927.1338,1.676.2312,1.69.413a4.6572,4.6572,0,0,1-.404,2.1659,29.0837,29.0837,0,0,1-2.0113,3.8781,4.1522,4.1522,0,0,1-1.6919,1.4129c-1.4177.6658-2.4156-.5791-3.3-1.2238a51.7572,51.7572,0,0,1-4.2828-4.1171,1.2482,1.2482,0,0,0-1.2034.0976c-1.3739,1.2864-2.61,2.7231-4.0132,3.974a16.6479,16.6479,0,0,1-2.7411,1.7082c-.0953.0559-.2837-.0469-.4288-.076.6232-1.7268-1.2611-1.7272-1.8867-2.565a22.0052,22.0052,0,0,0-4.8623-5.1251c-1.9367-1.326-1.1338-2.9765-1.2249-4.4682-.1791-2.9327-.0634-5.8846-.0344-8.8282.0121-1.2244.0857-2.4506.1981-3.67a1.4066,1.4066,0,0,1,.5124-.7752c1.58-1.3871,3.21-2.7189,4.7683-4.13,1.93-1.7484,3.7924-3.5711,5.7226-5.319a1.1265,1.1265,0,0,1,1.027-.15,74.6215,74.6215,0,0,1,7.2006,4.2456,6.2173,6.2173,0,0,1,2.9741,5.0868A10.9775,10.9775,0,0,0,124.5965,51.2065Zm-7.4573,12.8983-.0327.001c-.1617-3.6262-.3161-7.2528-.4992-10.8779a1.2463,1.2463,0,0,0-.3632-.8234c-1.1174-.9174-2.2577-1.8109-3.4421-2.6381-.153-.1068-.8791.21-.8834.3452q-.1883,5.8745-.2433,11.7527a1.6949,1.6949,0,0,0,.5726,1.131c1.1435.9781,2.3367,1.9008,3.5468,2.7964a1.4945,1.4945,0,0,0,1,.2281c.1435-.0186.2929-.4563.33-.7193A8.5605,8.5605,0,0,0,117.1392,64.1049Z" transform="translate(-1.9341 -1.8202)"/><path class="cls-1" d="M190.6179,139.9616c0-4.0444.0623-7.5821-.02-11.1164-.0623-2.6621-.2039-5.3327-.5232-7.9738-.1471-1.2169.7226-1.5287,1.2946-2.0539a35.8887,35.8887,0,0,1,4.3142-3.5218,43.2242,43.2242,0,0,1,4.6064-2.4083c1.3747-.6908,2.811-1.2737,4.1292-2.0572.9984-.5935,1.6137-.4078,2.1578.5188q2.8233,4.8078,5.656,9.61a21.5526,21.5526,0,0,1,1.9087,3.2906,2.47,2.47,0,0,1-.6766,1.9617c-2.4324,2.6682-4.6434,5.5749-7.7557,7.55-1.5627.9916-3.1273,1.9834-4.6361,3.0526a1.1431,1.1431,0,0,0-.03,1.1,57.8052,57.8052,0,0,0,4.671,3.6272,1.7927,1.7927,0,0,0,1.63-.2706c1.5982-1.3521,3.0883-2.8315,4.6355-4.245.1242-.1135.383-.08.5792-.1144.011.1517.0879.3442.0231.4491-1.0013,1.6215-1.971,3.266-3.049,4.8358a60.8006,60.8006,0,0,1-4.37,5.9348,2.5869,2.5869,0,0,1-3.4509.7094,26.533,26.533,0,0,1-8.1547-5.8689c-.8112-.8491-1.8017-1.5247-2.6445-2.347A1.06,1.06,0,0,1,190.6179,139.9616Zm8.0451-15.8052-.1825.0439c.4021,3.05.7963,6.1014,1.23,9.1471.022.155.506.4162.5634.3693,1.6589-1.3558,3.3288-2.7039,4.894-4.1636a1.6388,1.6388,0,0,0,.2221-1.5311c-1.848-3.3819-3.7855-6.715-5.7072-10.0564a2.6716,2.6716,0,0,0-.4644-.4774,2.9616,2.9616,0,0,0-.2468.7375C198.8543,120.2019,198.7625,122.1794,198.663,124.1564Z" transform="translate(-1.9341 -1.8202)"/><path class="cls-1" d="M226.6968,130.48c0,1.8374.0754,3.6789-.0258,5.5106a3.4991,3.4991,0,0,0,1.3491,2.9236c.7727.7032,1.566,1.3885,2.3934,2.0256,1.1447.8813,1.7449-.1563,2.4606-.7608.2267-.1915.4723-.3605.7092-.54-.0323.2647-.0477.5327-.0993.7936-.6474,3.2742-3.0483,5.284-5.2916,7.4364-1.54,1.4776-2.9216.1189-3.9081-.4712a15.7039,15.7039,0,0,1-4.3665-4.1014,8.1424,8.1424,0,0,1-1.4116-4.116c-.3188-4.6353-.3917-9.2876-.5552-13.9335-.0211-.5991-.0564-1.2012-.0213-1.7982.2271-3.87-.7985-4.2431-4.3484-5.5749a1.151,1.151,0,0,1-.044-1.0071c1.6087-1.9025,3.1744-3.86,4.9541-5.5943,1.9046-1.8564,1.9386-1.6387,5.1628-.01a3.7621,3.7621,0,0,1,2.4059,4.2162,11.546,11.546,0,0,0,.4716,2.9774c.7027-.6542,1.44-1.2756,2.1014-1.9691,1.6736-1.7545,3.2532-3.6037,4.9968-5.2839a9.0379,9.0379,0,0,1,2.5687-1.388c.1586-.0727.5338.1387.7075.3175,1.6054,1.6531,3.1212,3.402,4.8247,4.9446.432.3912,1.4465.1054,2.1817.2113a3.2066,3.2066,0,0,1,.9054.4537,18.8556,18.8556,0,0,1-1.0838,1.8639,41.1413,41.1413,0,0,1-2.7171,3.434,4.47,4.47,0,0,1-6.06.6461,12.0333,12.0333,0,0,1-2.29-2.2715c-1.0181-1.3226-1.7946-.5886-2.5736.174-1.04,1.018-2.0693,2.0523-3.0224,3.15a2.3358,2.3358,0,0,0-.4776,1.3851c-.05,2.1177-.0217,4.2371-.0217,6.356Z" transform="translate(-1.9341 -1.8202)"/><path class="cls-1" d="M143.2211,48.6719c0,4.7228.0291,9.446-.02,14.1683-.0127,1.2309.6833,1.7468,1.608,2.2629,1.413.7885,2.8057,1.6235,4.1431,2.5328.6806.4628.9291.8118,1.6915-.1361a14.8107,14.8107,0,0,1,3.6187-2.6971c.23-.15.7256.1078,1.0985.1773a5.7124,5.7124,0,0,1-.6732,1.9215c-.9733,1.1338-2.19,2.0571-3.1781,3.18-1.2229,1.39-2.2775,2.9275-3.4766,4.34-.6466.7619-1.1847,1.4434-2.6037,1.0737-4.2-1.0941-7.2533-3.8711-10.36-6.57a3.7987,3.7987,0,0,1-1.2794-4.1071c.5817-2.7807.133-5.78.0986-8.6855-.0317-2.6767-.1507-5.354-.1042-8.0288a2.5854,2.5854,0,0,1,.92-1.593c1.97-1.7487,3.9722-3.466,6.0328-5.1067,1.7805-1.4178,3.6039-2.7959,5.5085-4.0382,1.0861-.7084,1.3645.4471,1.596,1.1291.98,2.8879,4.0965,5.7917,7.25,5.7388a5.4784,5.4784,0,0,0,1.533-.46c.2443-.082.4767-.1992.7145-.3.05.2981.2163.6345.1327.8886-1.0392,3.1586-3.4445,6.41-7.3738,6.4582a6.1988,6.1988,0,0,1-4.9825-2.7167,7.2729,7.2729,0,0,0-1.3728-1.1366l-.3276,1.6858Z" transform="translate(-1.9341 -1.8202)"/><path class="cls-1" d="M249.4284,66.0172c.3246,4.3485.5716,8.7056,1.0542,13.0365.0758.68,1.1843,1.2848,1.8768,1.8487,2.0064,1.6337,4.1359,3.1284,6.0424,4.869,1.7282,1.5778,2.1775-.3219,2.9227-.97,1.88-1.6357,3.6008-3.4536,5.3865-5.1974,1.2079-1.18,2.38-2.4,3.6363-3.5251,1.5375-1.3764.81-3.11.8022-4.7013-.0074-1.5373-.3112-3.0708-.3882-4.6107-.29-5.794-.4358-11.5973-.8425-17.3826-.28-3.9763-.9019-7.9284-1.366-11.8919a1.2573,1.2573,0,0,1,.0329-.4164c.2674-.0076.6217-.0853.79.054,1.3411,1.1077,2.6712,2.2315,3.9541,3.4056a15.3729,15.3729,0,0,1,1.9987,2.1951c.115.156-.2492.9753-.5147,1.0492-1.2633.3517-1.6605.9666-1.5369,2.3532.2792,3.13.2771,6.2841.4295,9.4265.2681,5.53.5378,11.06.8755,16.5863.0679,1.111.6695,2.2165.6064,3.3a4.5384,4.5384,0,0,1-1.1169,2.7962c-2.0935,2.0373-4.5206,3.7373-6.568,5.8147-2.34,2.3742-4.3959,5.0269-6.63,7.51a1.227,1.227,0,0,1-1.1532-.067c-2.4274-1.88-4.8361-3.7869-7.1942-5.7531-1.0594-.8834-1.9448-1.977-3.0139-2.8465a1.47,1.47,0,0,0-1.4114.1c-1.2581,1.1194-2.3848,2.3854-3.6188,3.534a1.1265,1.1265,0,0,1-1.07.13,7.3676,7.3676,0,0,1-1.8993-2.2252c-.1464-.3324.6868-1.1814,1.18-1.6928,1.0868-1.1273,2.2918-2.1436,3.34-3.3035a2.5568,2.5568,0,0,0,.5573-1.6492c-.0689-2.2619-.274-4.5192-.3889-6.78q-.2577-5.0682-.4557-10.1395c-.0284-.6965-.2143-1.5315,1.08-1.001.8231.3374,2.1336.0509,2.58.5844.4595.5487.1428,1.7537.1517,2.6716.0094.9594.0021,1.919.0021,2.8784Z" transform="translate(-1.9341 -1.8202)"/><path class="cls-1" d="M22.7456,4.4106a12.4055,12.4055,0,0,1,6.9626,1.9867,17.4072,17.4072,0,0,1,2.8023,1.58c1.9834,1.6493,3.7394-.0627,5.5941-.212.1676-.0135.3357-.0206.5035-.0306a1.7272,1.7272,0,0,1-.2661.5594c-1.7474,1.6141-3.412,3.341-5.3,4.7728-1.4534,1.1024-3.3876,1.6026-4.7514,2.7827a5.8283,5.8283,0,0,1-4.7989,1.3161A44.4211,44.4211,0,0,0,17.4064,16.6c-5.3222.2158-9.8315,2.1626-12.8651,6.8066-.6983,1.069-1.4252,2.12-2.1585,3.1651-.0725.1034-.2831.11-.43.1614a1.248,1.248,0,0,1,.0085-.46c.879-2.0015,1.8181-3.9781,2.6432-6.0012.4727-1.1591.6784-2.4277,1.1585-3.5829A28.8984,28.8984,0,0,1,8.3307,11.3c.8092-1.174,2.3115-1.8489,3.4136-2.847,2.3088-2.0909,5.3365-2.595,8.075-3.7189A10.5717,10.5717,0,0,1,22.7456,4.4106Z" transform="translate(-1.9341 -1.8202)"/><path class="cls-1" d="M226.5724,45.1157q0,17.02.0183,34.0395a1.708,1.708,0,0,0,.4332,1.1542c2.7521,2.48,5.52,4.945,8.3452,7.3407.5512.4673,1.4837.4833,2.0387.9482a6.6142,6.6142,0,0,1,1.9365,2.3522c.138.3356-.7785,1.378-1.4118,1.6718a2.2627,2.2627,0,0,1-1.9658-.3225c-2.96-2.4206-5.8315-4.95-8.7358-7.4385-1.3013-1.1152-2.6266-2.2033-3.9032-3.3459a1.3865,1.3865,0,0,1-.3849-.9315c-.0214-5.9757.0405-11.9521-.0325-17.9269-.05-4.0643-.1628-8.1362-.5-12.1837-.1038-1.2463-1-2.4448-1.6262-3.6152-.1348-.2518-.6654-.3118-1.0264-.4168s-1.0545-.145-1.0578-.2336a2.1647,2.1647,0,0,1,.2523-1.4285c1.941-2.0157,3.9466-3.97,5.9879-5.8846.1-.0936,1.051.3623,1.0617.5883.0894,1.8741.0507,3.7543.0507,5.6326Z" transform="translate(-1.9341 -1.8202)"/><path class="cls-1" d="M245.6457,46.3977a47.719,47.719,0,0,0-.458-6.6364c-.1929-1.0544-.3584-2.7777-2.1619-2.99-.0911-.0107-.2728-.6626-.1593-.7892,1.633-1.8211,3.1244-3.6991,3.3784-6.268.0167-.1689.3364-.4022.5392-.43a.7535.7535,0,0,1,.579.316c1.1494,1.7355,2.2522,3.502,3.4116,5.2305.6189.9227.1429,1.1827-.4764,1.968a8.3841,8.3841,0,0,0-1.7521,4.7165c-.068,3.86.3673,7.7264.5191,11.5935.024.6113.6431,1.85-.8338,1.6918-1.0006-.1069-2.7422.9563-2.6085-1.4462C245.7338,51.3627,245.6457,49.36,245.6457,46.3977Z" transform="translate(-1.9341 -1.8202)"/></svg>