<svg id="Layer_1" data-name="Layer 1" xmlns="http://www.w3.org/2000/svg" viewBox="0 0 1528.3565 944.2129"><defs><style>.cls-1{fill:#fff;}</style></defs><title>logo_banner_bwater</title><path class="cls-1" d="M223.9946,801.8843c-.8455,26.3043-1.0523,52.65-2.7388,78.9-1.3463,20.9538-11.9685,38.2326-28.8483,49.8292-11.9467,8.2075-26.6327,12.518-41.5054,13.4555A219.277,219.277,0,0,1,117.3967,944c-28.25-2.5668-51.0988-14.4777-64.4158-40.78-2.27-4.4834-3.2948-9.6588-4.49-14.6123-3.0182-12.5044-6.6735-24.9467-8.3959-37.6416-1.25-9.2144.2741-18.7913.3918-28.2087.15-11.96.0728-23.922.2021-35.8821.0673-6.2233.6119-12.4477.5222-18.6655-.4718-32.7312-.9692-65.4629-1.6722-98.19-.5107-23.7752-.9914-47.561-2.1477-71.31-1.2729-26.1447-3.4516-52.2439-4.96-78.3789-1.3993-24.2389-2.2962-48.5069-3.675-72.7472-1.1441-20.1142-2.69-40.2054-4.0176-60.3095-1.8649-28.2376-3.5917-56.4847-5.5575-84.7152-4.0985-58.8577-8.5142-117.6945-12.2553-176.5745C6.4,117.7178,7.941,108.9675,10.26,100.9421c5.784-20.02,14.9045-37.3995,34.8855-47.9928,16.5216-8.7592,33.3361-9.2736,51.1933-9.3937A45.9292,45.9292,0,0,1,127.38,54.99c8.0955,6.9942,16.2307,16.8537,18.6877,26.8478,4.8849,19.87,5.8519,40.6993,8.4963,61.1246,1.8876,14.58,3.8787,29.1472,5.8054,43.7225.48,3.6348,2.564,4.7531,5.7306,3.31,8.1072-3.6937,16.3152-7.2333,24.1273-11.4875,6.7162-3.6573,12.9211-8.2483,19.3879-12.37,11.7747-7.505,18.9379-18.6486,24.7505-30.94,2.9351-6.2064,5.6366-12.6575,9.5687-18.2,1.894-2.67,6.2681-4.5881,9.73-4.98,32.8543-3.7163,65.688-8.4091,98.6633-9.99,23.0093-1.1029,43.8508-9.3795,65.75-14.01,14.9793-3.1669,29.9031-6.6,44.827-10.022,7.6121-1.7453,15.1611-3.764,22.7542-5.5948q22.3213-5.382,44.6627-10.68c9.2994-2.1951,18.5856-4.4776,27.951-6.3548,14.3776-2.8818,28.9283-4.9755,43.1988-8.2931,12.22-2.8409,24.1421-6.9573,36.21-10.4611,13.1784-3.8261,26.3789-7.576,39.5555-11.4085,2.5969-.7553,5.1494-1.6784,7.6867-2.62,12.3977-4.6024,24.4509-11.3024,37.2534-13.3639,17.993-2.8973,36.54-3.0681,54.8485-3.04a179.1866,179.1866,0,0,1,36.3345,4.0388c10.17,2.1386,19.8652,6.57,29.7322,10.0945,7.4827,2.673,14.8008,5.85,22.3779,8.2055,12.4778,3.8785,25.0254,7.5893,37.6872,10.8063,26.1336,6.64,52.175,13.8662,78.6116,19.0182,20.3134,3.9587,41.1739,5.1094,61.79,7.5173,2.0641.2411,4.1166.5875,6.1827.8072,29.8182,3.1716,59.5774,7.212,89.473,9.2591,34.2431,2.3447,68.6079,2.9111,102.9193,4.2619q23.9486.9428,47.8952,1.9358c6.4922.271,9.7648,2.7753,10.21,10.1954.5407,9.0192,1.612,18.596,5.2571,26.6653,3.3077,7.3227,9.57,13.9535,15.9757,19.0838,9.69,7.76,20.593,14.0176,31.0624,20.7871,5.5538,3.5911,7.0814,2.3381,7.82-4.3929,2.47-22.52,4.7987-45.0761,8.2286-67.458,1.2833-8.375,5.4026-16.3236,8.3-24.4411,3.8674-10.8336,7.8626-21.6219,11.6958-32.4674,3.9659-11.2213,13.2074-16.7648,23.3929-20.3622,8.9661-3.1668,18.8176-3.8373,27.7662-7.04,9.47-3.39,18.7894-2.3111,27.9205-.722,11.8772,2.067,24.2232,4.1609,34.9755,9.2084,10.8675,5.1015,18.6279,14.6295,24.4679,26.0075,9.7819,19.0579,8.2179,39.0389,7.584,59.076-.4438,14.0305-1.5565,28.0419-2.48,42.0547-.9558,14.5019-1.7324,29.0256-3.1455,43.4851-2.1893,22.3994-4.5793,44.7869-7.3928,67.1154-2.7158,21.5542-4.883,43.064-5.12,64.86-.208,19.1263-2.8127,38.2146-3.8906,57.346-1.69,29.9931-2.8605,60.0153-4.4872,90.0123-1.272,23.4524-3.06,46.877-4.3143,70.33-.75,14.0231-.6645,28.09-1.3965,42.1148-1.0559,20.2276-2.9595,40.418-3.6932,60.6536-1.0716,29.5534-1.1052,59.1446-2.19,88.6973-.8317,22.647-1.0665,45.4866-4.3652,67.8274-3.7768,25.5808-8.0475,51.4571-21.1513,74.5875a52.1859,52.1859,0,0,1-22.5547,21.5482c-16.8754,8.1878-34.7505,13.7827-53.6891,14.9454a69.6119,69.6119,0,0,1-41.9392-10.3238c-14.3522-8.8246-28.0189-18.3034-35.7205-33.6908-3.92-7.831-7.8393-16.6371-8.123-25.1239-.7507-22.4593.5371-44.9842.8746-67.485a90.6871,90.6871,0,0,0-.8563-12.8515c-.3743-2.9157-1.6521-3.8195-4.4586-1.49a34.1973,34.1973,0,0,0-12.2618,20.4354,54.778,54.778,0,0,1-7.5457,18.9348c-2.1111,3.2015-7.4883,5.6829-11.5392,5.9092-13.3716.7469-26.8345-.19-40.2135.4867-13.3386.6751-26.6218,2.4824-39.9216,3.8685-3.8113.3973-7.6095.9721-11.389,1.6113-9.3865,1.5874-18.8907,2.7277-28.1054,5.0211-13.7808,3.43-27.5687,7.0836-40.9479,11.7946-10.96,3.859-21.4806,9.0906-31.9262,14.2587-23.1748,11.4659-46.659,22.4346-69.0914,35.2288-15.738,8.9762-33.2977,10.6908-49.6888,16.58-17.1139,6.1486-34.8735,5.4781-52.3452,7.5938-7.7851.9427-15.9513-.2063-23.8194-1.3039a155.0639,155.0639,0,0,1-23.3249-5.2016c-4.48-1.3536-8.3884-4.4917-12.724-6.4507-14.9481-6.7539-29.1132-14.5381-39.401-27.877-3.5118-4.5534-7.1416-9.02-10.84-13.4233-1.86-2.2136-4.6247-3.7565-5.9371-.0263-4.698,13.3535-16.5681,20.3162-25.5446,29.9074a100.622,100.622,0,0,1-52.267,29.5106c-17.3372,3.8631-35.4848,6.9572-53.6856,2.5786-16.5886-3.9907-33.4835-6.7791-49.9444-11.2085-15.369-4.1355-30.3613-9.6827-45.49-14.6985-18.1895-6.0307-36.2245-12.5625-54.558-18.1122-14.6329-4.43-29.5584-7.944-44.45-11.4554a435.4163,435.4163,0,0,0-89.0429-11.93c-15.7963-.4008-31.7063-1.9668-47.3621-.63-14.7752,1.2615-29.94,1.342-44.2542,6.8346-4.12,1.5807-9.2057,1.6148-13.65.9756-2.2761-.3274-4.92-3.35-5.9923-5.7761-2.8277-6.395-4.7428-13.1858-7.28-19.7183-6.5657-16.9015-18.7683-28.5687-34.7395-36.5116-.6037-.3-3.3781,1.68-3.4215,2.6721-.3064,7.0147-.1629,14.049-.1629,21.0771ZM1479.643,788.6874c.3033-2.8741.48-4.3824.6192-5.8942,1.2986-14.1282,2.542-28.2616,3.9113-42.3829.4766-4.9147,1.7773-9.7957,1.8143-14.6988.176-23.2427-.4451-46.5012.1934-69.7273.4362-15.8656,2.432-31.6911,3.8291-47.5257.4051-4.5911,1.4241-9.1365,1.688-13.73.6879-11.9654,1.3409-23.9412,1.5916-35.9215.4143-19.7973.1082-39.6161.8476-59.3981.6241-16.6946,2.2473-33.3541,3.5477-50.02.358-4.5891,1.719-9.1542,1.6434-13.7141-.5544-33.42-.0352-66.7916,3.2931-100.0813,3.8159-38.1674,7.5219-76.3458,11.3753-114.5094,2.647-26.2152,5.5785-52.4021,8.1391-78.6255.8358-8.5587.9034-17.1925,1.3223-25.792a20.64,20.64,0,0,0-5.6993,6.9167c-5.923,12.2553-13.6492,23.276-24.8414,31.0107-10.9552,7.5709-22.2893,14.9824-34.3825,20.397-10.01,4.4819-21.7614,4.9535-32.036,8.9946-14.9532,5.8812-29.8416,2.1925-43.8974-.5463-13.5355-2.6374-26.348-10.1465-38.81-16.7719-10.2334-5.4406-19.6432-12.5044-29.1355-19.2466-12.7632-9.0654-21.4675-20.7955-22.64-37.0683-.2986-4.1442-1.1486-8.2535-1.355-12.3983-.2757-5.5379-3.0592-7.4059-8.3849-7.216-11.98.4271-23.9823.9368-35.9562.636-17.9387-.4506-35.8556-1.7076-53.7912-2.3671q-33.2845-1.2238-66.5856-1.97c-7.6576-.1633-15.4159,1.3188-22.9825.5725-18.393-1.8141-36.75-4.1639-55.03-6.9118-21.2084-3.1882-42.3169-7.04-63.4737-10.5749-1.5717-.2626-3.2111-.1442-4.7714-.4478-9.3873-1.8261-18.7869-3.6024-28.1307-5.6335-8.4013-1.8263-16.7205-4.0264-25.1051-5.9341-6.528-1.4853-13.1662-2.5215-19.6391-4.2052-12.2054-3.1748-24.4078-6.4086-36.4609-10.1084-12.6415-3.88-25.16-8.1847-37.6317-12.5885-9.9224-3.5036-19.6531-7.5477-29.5552-11.1123-3.1215-1.1236-6.6076-2.3459-9.7808-2.0346-21.5163,2.11-43.4919-2.6988-64.6725,4.3235C718.46,25.78,707.736,28.0989,697.969,32.54a331.1486,331.1486,0,0,1-64.272,21.6213c-7.5937,1.7166-15.4153,2.4267-23.0077,4.1484-10.3852,2.355-20.5944,5.4866-30.981,7.8336-15.1475,3.4229-30.3909,6.42-45.5779,9.67a33.02,33.02,0,0,0-4.9327,1.8111c-8.9239,3.4825-17.6985,6.7114-27.6792,6.908-8.6153.17-17.3336,2.2565-25.7391,4.4981-19.5688,5.2187-38.8515,11.5355-58.4782,16.5067a340.9515,340.9515,0,0,1-96.4608,10.4831c-10.1011-.3638-20.3,1.73-30.4412,2.8157-7.9144.8469-15.9526,1.2588-23.66,3.05-4.6732,1.0863-9.901,3.501-12.9214,7.0063-3.4717,4.0289-5.2388,9.7728-6.9437,15.0319a60.04,60.04,0,0,1-29.738,35.3015c-15.7813,8.3772-29.7811,20.648-48.1922,23.6705-8.4306,1.384-16.9821,4.0505-25.3218,3.5451-16.8509-1.0212-33.5693-4.0563-50.39-5.8034-16.4869-1.7123-29.8991-9.0081-41.708-20.3613-10.126-9.7353-18.1429-20.9234-25.3862-32.8113-.7188-1.18-2.2533-1.8626-3.4092-2.7761a33.2194,33.2194,0,0,0-1.253,3.95,10.3124,10.3124,0,0,0,.12,2.8644c1.5215,15.8982,3.2876,31.777,4.5345,47.6965,3.27,41.75,6.3063,83.5189,9.4542,125.2787,1.0574,14.0271,2.2141,28.0468,3.2424,42.076.6734,9.1866,1.4316,18.3768,1.724,27.5789.3022,9.511-.1078,19.0437.1476,28.5574.3167,11.7982,1.0417,23.5849,1.5066,35.38.4008,10.1674.0353,20.4132,1.1829,30.4907,1.4586,12.8077,4.441,25.4353,6.141,38.2237q2.6772,20.14,4.11,40.44c.975,13.6873,1.2587,27.4245,1.799,41.1417.34,8.6194,2.7267,17.8716.4094,25.7225-3.9182,13.2744-2.12,26.4343-2.2679,39.5026-.3869,34.2643,3.146,68.5389-.0493,102.8205-.118,1.2656-.4669,2.5093-.5952,3.7746-.5082,5.0109-1.3605,10.0254-1.3743,15.0405-.0341,12.4208.3534,24.8422.51,37.2642.0758,6.0145.0131,12.0306.0131,18.0461,2.7518-18.8121,13.4652-33.3765,26.3538-45.9747,8.7959-8.5978,19.7907-14.9662,29.8978-22.1979,21.4994-15.3831,45.3081-25.1024,71.7706-26.6532,10.32-.6049,20.91.9819,31.1746,2.7482,6.4778,1.1147,12.5192,4.5952,18.8638,6.6888,13.42,4.428,22.6481,14.22,30.8188,24.8531a74.51,74.51,0,0,1,14.1854,32.67c.9388,5.2877,4.1041,6.244,8.8093,4.8122a54.66,54.66,0,0,1,10.2119-2.399c7.89-.8044,15.841-1.0153,23.7342-1.7988,11.5741-1.149,23.119-3.66,34.6771-3.6643,19.7236-.0075,39.4614,1.2588,59.1644,2.4615,6.8.415,13.5295,2.1542,20.2632,3.4355,7.5066,1.4283,14.9589,3.1463,22.4747,4.5207,14.2247,2.6012,28.7416,4.0642,42.6546,7.7982,18.6908,5.0162,36.9443,11.6756,55.3488,17.741,20.4644,6.7442,41.0428,13.1863,61.2894,20.5371,25.1391,9.127,50.6165,14.3347,77.5253,11.3816,14.374-1.5775,28.4353-1.9329,42.1413-8.9087,17.7289-9.0231,30.8886-22.5049,42.95-37.287,5.9479-7.29,9.2958-16.6731,14.09-24.9531,1.0854-1.8746,3.2223-4.2,5.001-4.3118,1.7371-.1089,4.1742,1.9825,5.3663,3.7429,4.4607,6.5873,8.1,13.7618,12.8473,20.1181,10.5133,14.0753,24.5449,23.9767,39.7087,32.5889a103.4184,103.4184,0,0,0,45.5233,13.5176c21.2149,1.1551,42.3309-1.9007,63.1609-7.0787,16.7242-4.1573,32.69-9.57,47.7705-18.01,14.3241-8.0171,29.133-15.1678,43.7261-22.7048,8.3491-4.3122,16.53-8.994,25.0775-12.8684,12.4574-5.6469,24.8415-11.823,37.8645-15.7667,18.4311-5.5816,37.3011-9.9091,56.2-13.69a403.0577,403.0577,0,0,1,47.7927-6.7974c14.5949-1.1312,29.3477-.4167,44.0265-.2053,9.9309.143,13.5516-1.7834,15.172-11.8686,1.999-12.44,8.6531-21.8572,17.1312-30.3319,4.6883-4.6865,9.2466-11.0242,15.0293-12.7822a165.529,165.529,0,0,1,38.7966-7.1371c12.8005-.6947,25.81,1.1795,38.6373,2.69a252.4478,252.4478,0,0,1,27.5077,5.3183c4.1471.9647,8.017,3.09,12.0463,4.5992,14.6088,5.4721,26.7759,14.3908,35.7244,27.0746,4.7284,6.702,7.9791,14.4437,11.9408,21.692C1477.1822,785.3264,1478.06,786.3893,1479.643,788.6874ZM59.9514,881.1163c1.1208,2.8751,3.1808,8.5569,5.53,14.1166,10.4858,24.82,31.3785,35.1717,56.1758,39.06,16.2823,2.5533,32.0135-.3318,47.64-6.3518,13.6423-5.2556,26.5991-10.6122,33.4706-24.3061,3.7431-7.46,7.8684-15.4584,8.642-23.5192,1.4513-15.123-9.6516-30.0452-23.9054-35.0776-6.5208-2.3023-12.751-6.04-20.2594-3.9563a86.8835,86.8835,0,0,0-42.5005,26.0987c-1.4175,1.5819-3.872,2.2345-5.8459,3.3179-.921-2.1847-2.6378-4.3727-2.6288-6.5536.045-11.0109.4054-22.0263.9312-33.027.273-5.7111,1.367-11.3829,1.6389-17.094.325-6.8265.1087-13.6772.2454-20.515.062-3.0992-.9677-5.3037-4.0724-3.1328-10.9543,7.6594-22.7019,14.587-32.251,23.7663C64.8887,831.1234,62.1359,854.4527,59.9514,881.1163Zm1412.22-61.5189c-.7552-5.6816-.9524-11.5062-2.3657-17.019-5.1571-20.1175-12.0727-39.178-32.4364-49.4844-2.9089-1.4722-3.95-1.3606-4.494,1.8005-3.0861,17.9167-6.1322,35.8409-9.3533,53.7334a135.78,135.78,0,0,1-3.5827,14.405,4.3545,4.3545,0,0,1-2.8488,2.7049c-.86.0953-2.064-1.4854-2.8611-2.5188-2.8812-3.7352-5.0445-8.2941-8.5793-11.206-12.3655-10.1859-27.32-11.499-42.2708-9.29a39.3871,39.3871,0,0,0-19.3012,8.7538c-12.2324,10.7521-15.4023,38.86-6.3615,52.4536,9.0655,13.6308,23.0062,20.3291,38.5427,23.949.8156.19,2.5324-.9489,2.8536-1.8264.3908-1.0674-.2538-2.514-.4506-3.7966,1.9646-.1037,4.18-.8423,5.8447-.1859,4.1414,1.6325,8.4766,3.3393,11.9106,6.0567,4.2189,3.3386,8.3479,3.63,12.9974,2.0687,7.26-2.4384,14.3288-5.6638,21.7528-7.3448,14.6766-3.3231,23.4956-13.8361,31.1546-25.1547C1469.93,846.4531,1471.6322,833.1215,1472.1715,819.5974ZM1527.39,75.76c-1.554-9.2261-2.1291-18.76-4.907-27.6015-3.5687-11.3581-10.3254-20.9054-22.5769-24.7994-7.4119-2.3558-15.0832-3.9832-22.3346-6.7368-13.89-5.2746-28.0847-6.4453-42.186-2.446-13.3221,3.7784-27.1148,6.1213-31.7071,23.9845-3.5072,13.6425-4.8343,25.5392,4.632,36.226,4.5121,5.0936,11.02,8.5725,16.9757,12.2051,17.4574,10.6475,38.7613,7.01,48.4677-8.5745a8.8708,8.8708,0,0,1,2.2693-2.4541,19.4669,19.4669,0,0,1,3.1814-1.5513,13.7818,13.7818,0,0,1,.6818,3.4716c-.43,6.8449-.775,13.7066-1.5558,20.5159-2.1375,18.6412-4.5312,37.2532-6.5994,55.9016-.1209,1.09,2.4428,3.53,2.5819,3.444,5.5084-3.4111,12.2353-5.9929,16.0008-10.8539a343.0182,343.0182,0,0,0,24.7283-36.867C1521.0367,99.3769,1526.7127,88.6061,1527.39,75.76ZM56.5868,122.6876l-1.5086-.2853c1.1-3.81,2.0958-7.6549,3.3791-11.4017.2952-.8618,1.5779-1.3853,2.4061-2.0645a14.8314,14.8314,0,0,1,1.3088,3.2917c1.2082,8.5172,5.0153,15.48,13.3784,18.3315,13.75,4.6877,26.1937-1.3612,38.6961-5.96.49-.18.7014-1.037,1.12-1.51,2.1831-2.4681,4.0939-5.29,6.641-7.3042,12.6348-9.99,16.5372-22.8407,9.0453-36.8216C124.0978,65.9838,114.24,55.7492,98.1481,53.9809,79.943,51.98,63.4152,55.9434,48.2065,66.1753,30.226,78.272,22.0149,95.1867,24.9428,116.3936c3.354,24.2932,17.2525,42.8047,35.6525,58.2172a10.1014,10.1014,0,0,0,2.9341,1.1545,13.0752,13.0752,0,0,0,.2823-3.5694C60.5259,155.8259,54.372,139.9012,56.5868,122.6876Zm1358.7438,51.9609c10.9107-2.2439,23.6013-5.0868,36.3888-7.392,7.1111-1.2819,10.4389-5.2266,11.3425-12.1189.9927-7.574,2.404-15.0923,3.5653-22.6453,1.697-11.0371,3.4336-22.07,4.9112-33.1372.2945-2.2062-.499-4.5578-.7908-6.8423a47.7169,47.7169,0,0,0-5.8063,3.1529c-5.5364,4.0408-11.3249,6.5306-18.4825,6.8281-10.2443.4258-18.7733-4.0186-27.9592-7.2006-12.5977-4.3639-21.6432-13-30.801-21.8572-.6387-.6178-3.4461-.333-3.5621.0464-2.3045,7.5418-4.9639,15.0536-6.32,22.7875-1.8634,10.6247-2.6774,21.4323-3.9861,32.156-1.2523,10.2608-2.5867,20.5117-3.8373,30.7727-.7078,5.8071,2.658,8.79,7.7365,9.6661C1389.4438,170.8853,1401.227,172.5079,1415.3306,174.6485Zm-97.7072,653.243,1.9506.5038c.9636-1.947,2.4377-3.8018,2.8083-5.8557,2.4742-13.71,12.829-20.7642,23.9861-25.2454,13.654-5.4841,28.5-7.7621,43.1425-3.24,6.8716,2.1222,13.3351,5.6874,19.8042,8.9539,5.3681,2.7106,6.11,2.4341,6.5771-3.7736.5389-7.16,1.0295-14.3262,1.7379-21.47,1.0214-10.2993,2.4157-20.5669,3.1528-30.8837.1239-1.7344-1.8531-4.577-3.5578-5.3334-14.7131-6.5286-30.6273-7.7244-46.3056-8.1433-11.9991-.3206-24.0771,2.2094-36.1158,3.51-11.8281,1.2778-12.3537,2.0379-12.9285,13.7372-.6561,13.3542-1.7007,26.6889-2.4456,40.0393C1318.738,803.0856,1318.2186,815.4906,1317.6234,827.8914ZM212.1312,829.804c-.8363-14.9879-1.478-29.99-2.5755-44.9589-.7617-10.3887-4.0179-12.9447-14.4328-14.336-18.1614-2.4261-35.5314.6091-52.7334,6.2307-11.0116,3.5986-12.2577,4.1846-13.0041,15.7818-.94,14.6125-1.1234,29.2728-1.7174,43.909-.1485,3.6589-.7334,7.3-.8741,10.9593-.0429,1.1165.7281,2.2644,1.1263,3.3979a26.3351,26.3351,0,0,0,2.4461-2.0851c7.6569-8.2649,16.675-15.4915,27.6659-17.04,14.8789-2.0963,30.1539-3.1393,44.3737,4.89C211.4213,841.6427,211.7232,841.62,212.1312,829.804ZM131.3231,196.9931c4.1564,0,8.3155.0925,12.4683-.0289,3.4093-.1,5.3867-1.7382,5.0739-5.4542-.201-2.3883-.1435-4.8061-.4642-7.1752-1.8788-13.879-4.014-27.7259-5.6926-41.6283-.897-7.4288-1.02-14.95-1.5776-22.4226a13.7215,13.7215,0,0,0-.9828-3.0829,17.3546,17.3546,0,0,0-2.61,1.759c-4.45,4.3134-8.2846,9.5281-13.356,12.8834-16.0834,10.641-33.691,12.7719-52.2027,7.3242-1.7672-.52-3.5582-.9591-5.3382-1.4358a35.2729,35.2729,0,0,0,.1615,6.0089c2.2863,11.7243,4.5192,23.4668,7.2465,35.0914.64,2.73,2.5379,6.2234,4.8386,7.336C95.3955,194.1508,113.2256,196.4554,131.3231,196.9931Z" transform="translate(-6.8222 -0.4637)"/><path class="cls-1" d="M536.0727,481.1245c-.7645,20.14-1.6212,37.5224-2.0033,54.9155-.1962,8.9348.7314,17.89.6693,26.8328-.1712,24.6693-.7807,49.3363-.8521,74.0053-.0435,15.018.5743,30.0383.9245,45.0568.1119,4.7972,4.6589,9.1226,9.4983,8.5421a5.5417,5.5417,0,0,0,3.7-3.3642,30.7755,30.7755,0,0,0,1.005-9.0073c-.8346-33.534-1.8389-67.064-2.6334-100.5989-.14-5.8936.6614-11.8035.7112-17.7086.1668-19.7852.0055-39.575.3633-59.3559.1345-7.4316,1.29-14.85,2.1179-22.2591a7.3925,7.3925,0,0,1,1.5476-3.9546c1.188-1.3166,3.0275-3.063,4.3842-2.9033,1.1875.14,2.7765,2.56,3.0066,4.1439.9411,6.48,1.39,13.0294,2.1209,19.5422a17.9945,17.9945,0,0,0,1.1213,3.4856,21.0813,21.0813,0,0,0,3.1856-1.7254c12.1937-9.5438,24.3912-19.0835,36.4984-28.7363,3.8463-3.0666,7.03-2.4786,9.8726,1.1692,8.8355,11.3374,17.815,22.5733,26.2489,34.2036,1.6292,2.2467,1.4681,6.11,1.392,9.21-.1685,6.8546-1.1261,13.6945-1.197,20.5461-.2246,21.7028-.5787,43.4166-.1218,65.11.3155,14.98,1.4229,29.986,3.1126,44.8741.7746,6.8249,3.7445,13.4121,5.8726,20.0579.2757.8612,1.4754,1.4266,2.2471,2.1289a9.86,9.86,0,0,0,.9489-3.0115c-.223-8.6283-.792-17.2525-.831-25.88-.1139-25.2162.0628-50.4336-.0534-75.65-.0978-21.2378-.665-42.4751-.5891-63.7112.0365-10.2133.9658-20.432,1.7889-30.6241.1175-1.4548,1.9239-2.7732,2.9486-4.1547,1.1355,1.3651,2.8842,2.5671,3.2986,4.1241,1.6409,6.1652,2.9651,12.4215,4.2046,18.684.7673,3.8769,2.1648,3.9388,5.076,1.6719,10.4561-8.142,21.0919-16.0526,31.58-24.1547,3.6211-2.7975,7.5-2.9609,10.4785.035,8.2976,8.3469,16.75,16.6581,24.0238,25.8662,5.601,7.09,5.9157,16.266,5.6606,25.1862-.1737,6.0719-.1478,12.1556-.0091,18.2293q1.4009,61.341,2.8637,122.6805c.17,7.6543-.2586,15.3252.019,22.9728.1922,5.2939-1.8493,9.11-5.6558,12.5543-21.6781,19.6178-43.1732,39.4392-64.9957,58.894a16.7682,16.7682,0,0,1-10.2408,3.9349c-14.9876.0139-28.24-4.9586-38.52-16.2325-6.1068-6.6971-12.0219-13.613-17.481-20.84-3.2672-4.3254-5.8846-4.3322-9.0691-.5016-6.8412,8.2293-13.5635,16.5578-20.439,24.758-4.8078,5.7342-9.6713,11.4338-14.7961,16.88a5.4791,5.4791,0,0,1-4.9277,1.0339c-7.6076-3.3486-14.9115-7.3973-22.557-10.6474q-23.5883-10.027-47.4547-19.3921a52.4486,52.4486,0,0,0-13.4727-3.0705c-21.2571-2.2588-42.4238-1.2138-60.4932,11.1748-7.8846,5.4057-12.8113,15.0811-19.2289,22.6931-2.518,2.9866-5.44,5.633-8.1776,8.4344-.8442-3.5036-3.0593-7.3566-2.272-10.4442,2.2358-8.7679,5.64-17.2438,8.6894-25.797,5.7631-16.1621,19.4812-23.4577,33.2513-31.6373,15.0248-8.9248,31.8524-11.0871,47.7294-16.6656,2.0309-.7135,4.6179-3.5315,4.7161-5.4866.9609-19.1364,1.9665-38.2992,1.8678-57.4488-.0557-10.8147-8.2358-17.9854-17.092-21.2295-11.224-4.1112-23.2951-3.6377-33.6956,4.5011-1.5363,1.2022-3.8964,1.3516-5.8754,1.9881-.1654-2.1231-1.219-4.75-.3483-6.2854,4.7011-8.2887,8.9815-17.0723,15.0976-24.2435,9.835-11.5317,21.9468-19.9961,38.2055-20.1561,1.3142-.0129,3.6581-2.35,3.744-3.7189q1.3054-20.7989,1.9-41.64c.1539-5.6389-3.74-8.001-7.8963-4.5024-6.365,5.358-11.8987,11.7016-17.8038,17.6084-4.6618,4.6631-9.2571,9.4014-14.1159,13.8509-.8756.8017-2.8864.3638-4.3731.4982.0982-1.6195-.37-3.5888.3815-4.8046C443.01,518.4913,451.03,505.2327,459.7,492.4176c8.8562-13.0895,17.9236-26.0979,27.8308-38.3906,5.72-7.0977,13.1051-12.9181,20.0863-18.9108,4.0456-3.4726,7.7245-1.95,10.2311,2.531,5.3492,9.5621,11.3024,18.8549,15.77,28.8136C535.9317,471.6174,535.6017,477.96,536.0727,481.1245Zm47.7633,59.5661c2.8661-8.3741-.174-15.3987-5.18-21.8142-1.9657-2.5189-3.5136-5.51-5.9016-7.5111-2.2835-1.9131-5.55-4.1435-8.1362-3.8726-4.424.4636-3.4592,4.7443-3.4362,8.1272q.1712,25.1439.0945,50.29c-.0408,19.1759-.1789,38.3517-.26,57.5275-.0188,4.46.306,8.9409-.0137,13.3771-1.2521,17.3733-2.6826,34.7341-4.0852,52.0963-.3476,4.3026,1.036,7.3721,5.2572,9.1546,4.5618,1.9264,9.0258,4.1142,13.4115,6.4182,3.5652,1.8728,6.6386,2.6272,9.7787-.9336,3.1442-3.5654,5.9219-6.6963,4.496-12.2265-2.1859-8.4781-4.5344-17.1226-4.9973-25.7934-.97-18.165-.8883-36.3925-.9944-54.5957C583.7329,587.52,583.836,564.105,583.836,540.6905Zm76.01,140.869c.85,2.7138,1.1526,7.7764,3.7338,11.0338,4.7065,5.9394,10.6952,10.8828,16.3085,16.0689,1.2956,1.1972,3.2351,1.6976,4.8782,2.5187.522-1.7612,1.4518-3.5109,1.5021-5.2855.4389-15.4609,1.2183-30.9356.93-46.3881-.4175-22.36-1.7871-44.7-2.4821-67.0563-.7045-22.662-1.0636-45.3346-1.6414-68.0008-.0435-1.7057-.124-3.7606-1.044-5.0346-4.5715-6.3313-9.3057-12.5568-14.2421-18.6079-2.3639-2.8976-4.5808-1.6627-5.7213,1.3583a11.3025,11.3025,0,0,0-.4723,4.7273c.8517,10.97,2.1583,21.9172,2.6292,32.9013.47,10.9557.0718,21.9464.1775,32.9207.0569,5.9075.6465,11.8187.5166,17.7176-.3084,14.011-.9962,28.0134-1.348,42.0238-.24,9.56.187,19.15-.3705,28.6859C662.84,667.3056,661.2393,673.3962,659.8463,681.56Z" transform="translate(-6.8222 -0.4637)"/><path class="cls-1" d="M1365.9687,378.9907c0-1.12-.0846-2.2472.0128-3.3587,1.1333-12.9341-1.5853-25.0907-5.636-37.4148-6.9417-21.1207-18.925-38.732-33.6118-55.0066-16.6032-18.3981-34.7317-34.8707-57.1375-45.83-26.4371-12.9312-54.1734-18.097-83.2129-10.65-6.8452,1.7554-13.3508,5.1675-19.7155,8.402-20.2241,10.2774-40.8456,20.2963-56.0435,37.7285-6.2829,7.2067-10.71,16.1864-15.1905,24.7724-6.3916,12.2488-12.7315,24.6071-17.8515,37.4151a94.1049,94.1049,0,0,0-6.0511,45.5962,45.0885,45.0885,0,0,1-.1164,8.6165c-.0775.92-1.0658,1.7639-1.6376,2.6425-.92-.7209-2.2992-1.2558-2.68-2.1953-1.5592-3.8454-3.3885-7.7158-4.0808-11.7548-3.0088-17.5537-4.7617-35.0725,1.33-52.51,3.1378-8.9814,4.5334-18.6178,8.1134-27.3881,5.6545-13.853,11.0554-28.182,19.2857-40.4891,6.18-9.2408,15.9764-16.5756,25.3445-23.0487,13.3226-9.2056,27.171-18.0347,41.7976-24.8824,24.6409-11.536,51.0668-18.0744,78.2508-13.5795,31.6833,5.2389,61.1851,17.0058,86.3936,37.7458,11.332,9.3233,23.437,17.97,33.4542,28.5661,14.6563,15.5032,28.5064,32.0045,33.11,53.9468.6483,3.09,2.4925,5.9311,3.1271,9.0221,2.9141,14.1915,5.7654,28.4007,8.293,42.6649,1.4094,7.9533,2.1062,16.0314,3.1864,24.0449,1.63,12.09-.9625,23.8559-5.0572,34.8214-6.7586,18.0989-13.1353,36.8694-23.3788,53.0041-12.8323,20.2124-30.8171,36.1665-52.3222,48.1476-17.4164,9.7032-35.9475,15.7481-54.7987,21.1572a83.4028,83.4028,0,0,1-23.2083,3.1883c-15.9442-.097-31.88-1.3275-47.8234-1.9889-3.6586-.1518-7.34.2729-11.0017.1546-17.4035-.562-34.764-1.8841-51.1518-8.2833q-28.4848-11.1227-56.5566-23.2884c-5.3537-2.3146-9.98-6.291-14.9907-9.4238-6.0434-3.7783-12.2865-7.255-18.1828-11.2469-9.91-6.7094-16.3294-16.2434-21.6646-26.8235-2.6972-5.3489-7.1738-9.769-10.3219-14.9288-6.8146-11.169-12.9764-22.7439-19.9793-33.7886-11.0409-17.4135-23.6661-33.3183-42.9473-42.6-13.6083-6.551-27.622-10.4009-42.87-9.1479-4.6188.38-6.5333,2.1753-6.2494,6.935.39,6.5408.2227,13.1132.3759,19.67.1765,7.5424,7.6876,13.2532,15.1491,11.7273a19.099,19.099,0,0,1,4.4428.1275c-.4072,1.48-.3478,3.4358-1.2954,4.3634-7.6357,7.4751-15.2681,14.9832-23.398,21.8975-1.5409,1.3106-5.9194,1.0286-7.8987-.2312a203.536,203.536,0,0,1-21.3246-15.4722c-1.9713-1.6489-2.8055-5.4158-2.9954-8.289-.5045-7.6336-.2809-15.312-.5138-22.9675-.525-17.2576-1.03-34.5172-1.7607-51.7668q-2.3145-54.6121-5.01-109.2067a10.9468,10.9468,0,0,0-3.9628-7.0675c-5.02-3.9193-10.5975-7.12-15.9234-10.6517-2.6962-1.7879-5.2319-3.8756-8.564-.9938-.5114.4423-2.6717.056-2.8771-.44-.4924-1.19-.8929-3.19-.25-3.9593,7.4385-8.902,14.9333-17.7716,22.8565-26.2347.943-1.0073,5.0406-.3145,6.7836.8859,10.49,7.2252,20.9527,14.5379,30.8918,22.4873,2.8774,2.3013,5.4853,6.7047,5.6977,10.2935,1.7188,29.0368,2.7713,58.1124,4.187,87.1683.3257,6.6814,1.2479,13.3348,1.9345,19.9971.44,4.27,2.957,5.31,6.3291,3.2573,5.5861-3.4,11.0741-7.0065,16.3271-10.8989,9.06-6.7129,18.6938-12.2535,29.7267-14.8079,1.86-.4306,5.3252.7458,6.1912,2.25a190.5056,190.5056,0,0,1,11.3735,22.6926c.8,1.9517-.7357,6.1689-2.5676,7.6453-5.5632,4.4836-11.82,8.1-17.7477,12.1427a19.9815,19.9815,0,0,0-2.7921,2.84c1.2541.5328,2.5179,1.551,3.7611,1.5268,26.0194-.5069,45.845,13.4747,63.743,29.4907,8.6767,7.7644,14.3524,19.3976,19.879,30.0607a339.1122,339.1122,0,0,0,42.42,62.9127c8.7512,10.3672,20.0438,15.9294,31.42,21.92a28.8251,28.8251,0,0,1,4.2445,2.2088c10.3073,7.91,22.0593,12.474,34.3571,16.4419,10.2122,3.2951,20.1066,6.9272,30.9871,7.7238,13.995,1.0244,27.91,3.0981,41.8884,4.4194a30.95,30.95,0,0,0,10.4191-.9088c15.1092-3.8908,30.2933-7.5958,45.1683-12.266,19.1494-6.0124,35.7878-17.1675,50.8152-29.9051,22.6052-19.1607,37.2986-43.6265,40.872-73.6189.9957-8.3565.1518-16.9321.1518-25.4072ZM900.84,339.8094c.2789,4.8287.5406,7.8538.6082,10.8832.1034,4.6379,2.0033,5.7995,5.9968,3.3275,7.457-4.6158,14.8032-9.425,22.4041-13.7907,12.5664-7.2176,13.0595-9.0494,3.3717-19.8057-1.072-1.19-4.5245-1.7485-5.8646-.9363q-11.8512,7.1824-23.1243,15.2976C902.3154,336.1628,901.4021,338.9376,900.84,339.8094Z" transform="translate(-6.8222 -0.4637)"/><path class="cls-1" d="M369.5738,421.4823c7.9736.4681,15.9532.8548,23.9182,1.44,3.6828.2708,4.9988-.917,5.0413-4.8317.3553-32.7353,1.273-65.4678,1.3133-98.202.0247-20.0665-1.3889-40.13-1.7934-60.2029-.3347-16.6082-.14-33.2272-.1678-49.8414-.0013-.797.4291-1.7549.1182-2.36a54.1664,54.1664,0,0,0-3.0214-4.7468c-1.3671,1.436-3.885,2.8455-3.9189,4.3124-.2689,11.6338-.1362,23.2795.0079,34.92.3,24.2717.6873,48.5424,1.0314,72.8136.1946,13.7289.2331,27.462.6314,41.1849a12.66,12.66,0,0,1-6.57,11.9585c-10.96,6.57-22.0651,12.9053-33.2329,19.1173-1.5941.8867-3.859.5677-5.8134.8066-.007-1.9274-.0719-3.8565-.0115-5.7817.39-12.4421,1.3245-24.8926,1.1018-37.3228-.3865-21.57-1.7249-43.1211-2.209-64.69-.4227-18.8307-.3362-37.6762-.2295-56.5137.0388-6.8548,3.0089-12.1546,9.4757-15.4633,22.7109-11.62,45.1605-23.7633,68.0462-35.0235,11.1374-5.48,26.467-.4817,34.5862,9.1258,16.3842,19.3874,22.7654,41.8282,18.6485,66.4775-1.5943,9.5457-7.1883,18.54-11.6124,27.4628-4.2626,8.5968-4.5235,8.4716,4.6159,10.881,8.9,2.3462,15.2119,8.5636,19.5318,16.0567,6.734,11.68,11.1379,24.1675,11.4147,38.1477.21,10.6135,3.6129,21.1832,3.6336,31.7762a183.6408,183.6408,0,0,0,4.0557,39.4031c1.6093,7.33-1.1709,14.5551-6.78,19.6629-22.3992,20.3984-39.3683,45.1461-56.5259,69.75-4.1978,6.02-7.72,12.5111-11.9327,18.519-1.3931,1.9866-3.98,3.136-6.0214,4.6682-1.0588-2.4686-3.4719-5.2649-2.9661-7.355,4.8577-20.0759-8.5339-29.5866-22.1532-38.7724-11.2792-7.6075-24.578-8.3783-37.59-9.728-4.7641-.4941-9.6135-.2423-14.3559-.8566-17.3973-2.2533-32.74,3.4244-47.5374,11.69-12.0188,6.7134-24.0958,13.2594-32.9706,24.276-.9987,1.24-3.4616,2.4209-4.7309,2.0159-1.3515-.4311-2.5663-2.6653-2.9679-4.3237a10.1679,10.1679,0,0,1,.3867-5.6532c5.5415-14.7229,8.78-30.3343,19.181-43.0858,8.935-10.954,20.4016-17.1255,33.3746-21.3235,8.0042-2.59,15.9274-5.5346,24.0811-7.5245,5.9742-1.4579,12.2494-1.8032,18.4182-2.3,4.1327-.333,8.314-.0634,12.4736-.0634Zm78.8724-43.3311c-.4729-7.1293-.59-16.9187-1.9041-26.5446-1.4392-10.5392-4.6683-21.0109-12.9483-28.098-5.3907-4.614-12.6032-7.1675-19.1421-10.3516-5.7765-2.8129-7.9416-1.1585-7.6348,5.1487.4031,8.2869.8609,16.5813.8975,24.8742.114,25.82-.07,51.6425.2531,77.4591.0255,2.033,2.6725,4.8133,4.792,5.9049,9.1553,4.7154,18.6038,8.8577,27.8657,13.3724,2.89,1.4089,5.5294,3.3332,8.2836,5.0215.5579-3.7076,1.6761-7.43,1.5787-11.12C450.0206,416.1214,449.2247,398.4341,448.4463,378.1512Zm-40.0192-92.4106-.5057.0638c0,3.1842-.1167,6.3774.1281,9.5426.0359.4653,2.4506,1.35,2.6493,1.1119,6.6877-8.0254,14.6039-15.4264,19.4872-24.461,7.05-13.0433,4.0252-26.9485-2.8539-39.3754-4.8811-8.8177-11.3835-16.754-17.4029-24.906-.7979-1.0805-3.0184-1.1106-4.58-1.6272a18.8286,18.8286,0,0,0-1.2145,4.3589q-.2457,7.1731-.0622,14.3595c.2524,9.8713.3275,19.7614,1.0434,29.6026C405.8774,264.8786,407.2956,275.2992,408.4271,285.7406Z" transform="translate(-6.8222 -0.4637)"/><path class="cls-1" d="M960.7005,535.9413c5.1225-.0026,10.2464-.1547,15.354.0676,2.24.0975,5.9817.4518,6.3537,1.5775a11.7917,11.7917,0,0,1-.4607,8.1793c-5.6246,11.3977-11.26,13.88-24.2842,13.0733a34.1136,34.1136,0,0,0-13.9876,2.5155c-1.86.7213-3.5477,4.5628-3.542,6.9821.0389,16.3032.6833,32.6038.8723,48.9083.1475,12.725-.1028,25.4544-.122,38.1819a80.9624,80.9624,0,0,0,.3627,8.621c.8631,8.1632,6.448,14.2775,14.4743,15.3684,1.7043.2316,3.9089-.9765,5.4334-2.12,3.444-2.5841,6.5-5.6855,9.9483-8.2632,1.062-.7938,2.8823-.5733,4.3554-.8173.2278,1.5926,1.2311,3.7149.5617,4.6948-5.7274,8.3849-11.3611,16.8933-17.8463,24.679A58.7486,58.7486,0,0,1,944.0576,709.47c-2.2325,1.3873-6.9579,1.2566-9.1644-.2351-10.1268-6.8462-20.0221-14.1068-29.4111-21.9262-2.6631-2.2178-4.4321-6.7368-4.72-10.3511-.9-11.3-.6588-22.6844-1.2913-34.0121-1.3882-24.8691-3.1061-49.72-4.5346-74.5868-.3035-5.2806-2.7448-7.0791-7.882-7.25-10.9917-.3661-21.97-1.2-32.944-1.99-5.649-.4063-7.893-4.8228-3.85-8.88,9.3207-9.3534,18.6594-19.0348,34.1954-15.9911,8.53,1.6711,9.68.3879,9.1433-8.29-.6807-10.9986-1.7618-21.9816-3.066-32.9241-.2463-2.0668-1.9695-4.3693-3.6677-5.7627a55.5685,55.5685,0,0,0-10.3791-6.851c-5.7527-2.8578-6.475-7.1808-3.2159-11.75a109.03,109.03,0,0,1,13.7233-15.7675c1.485-1.4066,5.8016-1.5148,7.8087-.3986,11.154,6.2026,21.9812,12.9909,32.9527,19.5247,4.7193,2.8106,5.5546,7.1026,5.8583,12.2361q1.4254,24.0768,3.917,48.079c.1745,1.66,3.7946,4.0617,5.9379,4.1974C949.1749,536.9023,954.9484,536.2144,960.7005,535.9413Z" transform="translate(-6.8222 -0.4637)"/><path class="cls-1" d="M336.32,259.816c.78,26.0282,1.6589,52.054,2.2975,78.0856.3327,13.5613.04,27.1382.3942,40.6985.4011,15.3367-7.9919,23.9768-21.0331,29.9424-9.5544,4.3706-18.673,9.6895-28.0373,14.4853a20.4124,20.4124,0,0,1-4.3934,1.1387c-.0218-1.6624-.5-3.4807.0062-4.9628,4.4849-13.1305,7.9971-26.6022,5.041-40.3666-3.0351-14.132-7.1678-28.0723-18.8521-38.2692-7.4615-6.5117-15.6761-7.2372-24.6817-4.8979-4.6354,1.2041-9.1977,2.7986-13.8975,3.614-4.4.7634-6.3011-1.9853-4.493-5.7707a83.277,83.277,0,0,1,8.461-13.7612c11.3423-15.2,26.3543-24.4228,45.3811-26.3633,4.7682-.4863,6.1059-2.2684,5.9193-7.0092-.4305-10.938-3.2876-22.2175,1.5286-32.6971a33.6882,33.6882,0,0,1,9.9345-12.6351c8.1657-6.0585,17.1646-11.0049,25.8876-16.2978,6.1652-3.7409,10.1883-1.47,10.27,5.8194.1087,9.7446.0269,19.4913.0269,29.2371Z" transform="translate(-6.8222 -0.4637)"/><path class="cls-1" d="M772.4968,625.6953c-3.6281-11.2342,6.3517-17.7722,15.372-24.4073,11.06-8.1356,22.5748-15.6531,33.8781-23.459,7.3217-5.0563,10.0492-4.6278,17.4046.7488,8.8917,6.5,18.4307,12.1225,27.2245,18.7426a21.6227,21.6227,0,0,1,7.159,9.9323c6.489,19.8754,6.0671,40.6245,6.7569,61.1968.3136,9.3539,3.7337,14.42,12.5918,17.6409,4.9649,1.8056,6.2029,5.0865,2.54,8.9164-6.9484,7.2648-14.2274,14.2448-21.8039,20.8438-1.1549,1.0059-5.3091.1277-6.923-1.24a203.2435,203.2435,0,0,1-14.7854-14.3538c-2.6943-2.8-5.0788-2.7573-7.83-.2689-4.7366,4.2846-9.28,8.8576-14.4441,12.5564a9.3987,9.3987,0,0,1-8.0641.7666c-10.585-5.2215-21.3088-10.3973-31.1077-16.9079-9.2012-6.1136-16.721-13.6062-16.1776-26.7671C774.853,655.9611,773.2706,642.1973,772.4968,625.6953Zm37.8294-11.72-.6082.0677c1.87,16.6138,3.6277,33.2422,5.7556,49.823.26,2.0225,2.1291,4.326,3.9028,5.5783,6.1194,4.3207,12.5092,8.2614,18.846,12.2678a11.735,11.735,0,0,0,2.9841.9114,15.8364,15.8364,0,0,0,.2862-2.7289c-1.158-17.8213-2.01-35.6744-3.784-53.4352-.4257-4.2623-3.1219-9.0437-6.23-12.11-4.24-4.1837-9.8234-7.0371-14.9494-10.2728-1.3976-.8823-3.221-1.09-4.8489-1.6076a29.2421,29.2421,0,0,0-1.2977,4.808A66.4351,66.4351,0,0,0,810.3263,613.9758Z" transform="translate(-6.8222 -0.4637)"/><path class="cls-1" d="M1199.0457,483.4057c6.0184,4.3372,11.8746,8.9413,18.1962,12.7794,1.2171.7389,4.6645-1.0519,6.3668-2.5113a66.7878,66.7878,0,0,0,7.7057-8.4775c2.346-2.8482,4.6611-4.1425,8.11-1.5312,3.6176,2.7388,7.8394,6.0178,4.772,10.5242a143.7412,143.7412,0,0,1-18.32,21.9854c-1.6888,1.6464-7.9309.6121-10.7242-1.2377a207.4437,207.4437,0,0,1-23.898-18.3314c-12.4833-11.1863-24.4543-22.9481-36.5016-34.6116-1.3257-1.2836-1.7406-3.5082-2.5778-5.2964,2.02-.4808,4.0628-1.4491,6.056-1.3564,7.8361.3646,10.2844-1.6206,9.9095-9.6275-1.36-29.0482-2.9313-58.0864-4.3894-87.13q-1.166-23.226-2.2146-46.4578c-.1624-3.5136-.0162-7.0492-.3266-10.5467-.6584-7.42-4.18-9.7828-11.7-8.4832-2.1554.3725-4.4538-.0815-6.6866-.1565,1.2081-2.04,1.9826-4.5925,3.6923-6.0407,14.7554-12.4995,29.6889-24.7886,44.5489-37.1648,6.8747-5.7255,13.7675-11.4323,20.5287-17.29,3.52-3.0493,6.0878-3.515,10.2083-.06,7.4065,6.21,16.1741,10.811,23.49,17.11,7.461,6.4235,13.9924,13.9609,20.6319,21.2815a13.4618,13.4618,0,0,1,3.2868,7.24c2.0759,21.7772,3.7643,43.591,5.7838,65.3739.7617,8.2163-2.9341,13.725-9.4157,18.0306-3.98,2.6438-7.74,5.6212-11.748,8.2188-3.3056,2.1423-2.3914,3.6553.4172,5.0713,4.9748,2.5082,10.374,4.409,14.824,7.63,2.4282,1.7575,4.32,5.5887,4.6576,8.6806,1.8707,17.1485,2.3777,34.48,4.9507,51.507,2.1157,14.002-6.077,21.7556-14.73,29.5826-1.1209,1.0138-5.7246-.1967-7.3065-1.7822-1.5393-1.5427-2.45-5.4654-1.5457-7.3259,1.8443-3.7929,5.5727-6.6405,7.6159-10.375a20.3037,20.3037,0,0,0,2.696-10.1524c-.6812-13.6879-2.1405-27.3358-2.9312-41.0205-.2482-4.2962-1.2173-7.3925-4.92-10.1211-11.346-8.3606-23.0449-14.5-37.9576-12.6168-10.4381,1.3183-21.0581,1.2035-31.5979,1.7086-5.2748.2528-7.0485,2.9935-6.8292,8.1862.9914,23.4766,2.6985,46.9859,2.17,70.4389-.2909,12.9049,5.452,19.4648,15.6909,24.3473Zm15.6666-115.5786c2.9817,0,8.8651,1.5195,13.392-.3128,9.7622-3.9513,18.7571-9.7638,28.2045-14.5406,5.6-2.8316,6.2311-7.1438,5.6147-12.7893-1.7-15.5658-3.5269-31.16-4.1066-46.7881-.2986-8.0484-3.4359-13.5518-9.0741-18.5015q-12.4063-10.8917-24.55-22.08c-3.9471-3.6522-7.39-4.1065-11.706-.3843-10.1534,8.7561-20.6523,17.1112-30.8236,25.8473a9.8354,9.8354,0,0,0-3.3278,5.9858c-.6715,9.552-1.3443,19.1554-1.0589,28.7117.4859,16.2786,1.8285,32.53,2.5134,48.8053.2261,5.3705,2.6062,7.5367,7.7282,7.2932C1195.8157,368.6788,1204.1149,368.3112,1214.7123,367.8272Z" transform="translate(-6.8222 -0.4637)"/><path class="cls-1" d="M583.92,288.66c.8706,29.69,1.8022,59.3794,2.5564,89.0728.1375,5.415-.353,10.855-.7288,16.2714-.355,5.115,1.1419,8.7509,5.36,12.3806,11.766,10.1258,14.2906,8.5429,4.237,21.5849a118.952,118.952,0,0,1-13.06,14.5075c-1.3642,1.2687-5.36,1.3723-7.0891.3-8.13-5.04-16.0519-10.4651-23.672-16.248-1.89-1.4347-3.2632-4.692-3.334-7.1557-.1673-5.82.9563-11.67.9058-17.502-.1354-15.65-.6492-31.2962-.9471-46.9453-.6935-36.4268-1.2879-72.8556-2.0513-109.281-.2741-13.0813-8.0845-23.0229-20.4049-26.2862-3.2307-.8558-4.5818-2.6381-3.0879-5.5322,4.5255-8.7669,9.0367-17.5717,14.2617-25.9183.9263-1.48,5.872-2.0193,7.9032-.9612,9.1813,4.7826,17.99,10.2831,26.9159,15.5527,2.3395,1.3811,4.9852,2.5075,6.8221,4.4,1.728,1.78,3.5432,4.3736,3.6436,6.6821.4773,10.9792.4351,21.983.4778,32.9784.0545,14.0314.0132,28.0632.0132,42.0949Z" transform="translate(-6.8222 -0.4637)"/><path class="cls-1" d="M614.7664,377.44c0-8.1456.0331-16.2914-.0135-24.4368-.0247-4.3312,1.8265-7.1885,5.3265-9.9794,10.6949-8.5277,21.129-17.407,31.3225-26.5315,8.2784-7.41,11.48-8.1611,21.1842-3.4245,4.449,2.1714,9.08,3.9679,13.5519,6.095,16.9007,8.0392,23.8983,19.0769,24.0022,37.2478.073,12.7414.484,25.504,1.4057,38.2092.5935,8.1817,6.8895,11.3624,14.0962,12.7586,6.0541,1.1728,7.5776,3.0642,5.6933,8.7661-2.8386,8.59-6.215,17.0749-15.2213,21.05-2.5337,1.1184-6.64,1.681-8.68.3835-8.288-5.2716-15.9627-11.4981-24.0948-17.0329-1.4429-.982-4.6841-1.2481-5.9025-.3048-5.6629,4.3845-10.8591,9.3666-16.33,14.0078a21.0247,21.0247,0,0,1-5.2607,3.261c-3.4669,1.4812-5.875,3.0748-9.5916-1.7937-5.4968-7.2-13.1181-12.9838-20.4912-18.492-8.0989-6.05-13.296-12.66-11.5008-23.5276.8728-5.2835.1509-10.83.1509-16.2581Zm41.0422-5.7052c.5128,6.1269-.2507,13.79,2.1993,20.2311,1.5684,4.1233,7.8809,6.4418,12.0655,9.571a2.9669,2.9669,0,0,0,.3654.3086q2.6474,1.3541,5.3029,2.6924c.6109-2.0123,1.809-4.0462,1.7361-6.0334q-.6414-17.478-1.87-34.9312a9.399,9.399,0,0,0-2.4159-5.8875c-3.1738-2.8688-6.9625-5.0493-10.444-7.5877-3.8991-2.8428-5.4818-1.0842-5.7833,2.915C656.52,358.9059,656.2277,364.81,655.8086,371.7348Z" transform="translate(-6.8222 -0.4637)"/><path class="cls-1" d="M1043.4034,568.66c1.3437.9067,3.85,1.767,5.0177,3.5194,8.4136,12.63,16.5655,25.4347,24.772,38.2022,1.0352,1.6106,1.56,3.7116,2.9128,4.9276,5.58,5.0165,2.5752,9.9966-.7515,13.8a145.0161,145.0161,0,0,1-43.1607,33.7254c-1.563.8037-3.1623,1.5405-4.7013,2.3875-2.5664,1.4124-2.6256,2.7546-.0956,4.4859,5.6745,3.8832,11.0471,8.2459,16.9371,11.75,1.5845.9427,5.1458.2663,6.8326-.9779,5.6422-4.162,10.7523-9.0386,16.2914-13.3525,1.2318-.9593,3.3832-.7376,5.1112-1.06-.4666,1.3771-.6277,2.9783-1.4473,4.0969-8.4248,11.4985-16.5383,23.2628-25.5866,34.2551-7.5977,9.23-13.528,9.3287-24.0882,3.9069a151.4157,151.4157,0,0,1-37.3034-27.3555,11.935,11.935,0,0,1-2.8995-7.4892c-.4882-14.0261-.4739-28.0687-.8368-42.1-.2064-7.9828-1.0764-15.9561-1.055-23.9321a10.1428,10.1428,0,0,1,3.2448-6.895c16.9146-14.0982,36.913-22.6426,56.9964-30.9816A30.934,30.934,0,0,1,1043.4034,568.66Zm-24.3264,29.6169c-2.78,17.483-4.01,34.7309,1.382,51.6636.1969.6182,2.63,1.3083,3.3029.8678a194.7867,194.7867,0,0,0,16.7566-11.84c1.2152-.9925,1.6918-4.73.8112-6.1573C1034.14,621.1594,1026.5471,609.756,1019.077,598.2769Z" transform="translate(-6.8222 -0.4637)"/><path class="cls-1" d="M1096.1452,663.1683c-.918-16.8738-1.8956-34.7309-2.8584-52.5888-.4421-8.2021-7.228-9.87-12.99-12.3216-6.19-2.6333-6.9728-3.9861-2.3032-8.8955a254.5254,254.5254,0,0,1,22.1754-21.1249c2.1428-1.7677,6.9928-1.4646,10.13-.5313,4.68,1.3926,8.9468,4.1808,13.383,6.3877,4.1075,2.0435,5.1959,5.55,5.389,9.8994.1634,3.6764,1.2029,7.3138,1.8547,10.9686,3.1508-2.2189,6.5359-4.173,9.4057-6.71,6.6995-5.9225,12.9473-12.3659,19.764-18.143,6.1344-5.1989,10.1106-4.5646,16.0705.6868a213.8189,213.8189,0,0,0,17.1582,13.7367c1.8668,1.3308,4.91.9059,7.3143,1.6222,1.8414.5486,4.6852,1.3241,5.0047,2.5434a7.8764,7.8764,0,0,1-1.58,6.0943c-3.8323,4.6346-8.085,8.9305-12.2864,13.2489-8.7933,9.0382-25.1795,7.8433-35.14-2.4937-6.1229-6.3543-6.94-6.3569-13.1195-.0362a5.7586,5.7586,0,0,1-.9966,1.0325c-11.79,6.9657-12.53,18.0325-11.5371,30.015.6857,8.2729.8347,16.6076.827,24.9143-.005,5.3854,2.3561,9.1168,6.5245,12.0656,2.6,1.8395,4.9539,4.5154,7.8362,5.3222,2.51.7026,5.6265-.5972,8.4373-1.19a45.6125,45.6125,0,0,0,4.8854-1.59c.32,1.9526,1.6139,4.5674.8072,5.754-6.9946,10.2866-13.5281,21.6776-25.8642,25.9624-4.2642,1.4811-10.7385-1.3721-15.4458-3.747-5.0407-2.5431-9.2-6.8409-13.723-10.4-7.0873-5.5774-8.4857-13.5634-9.0935-21.83C1095.9871,669.2761,1096.1452,666.7059,1096.1452,663.1683Z" transform="translate(-6.8222 -0.4637)"/><path class="cls-1" d="M787.241,373.3556c0,6.3913.0777,12.7839-.0258,19.1736-.0759,4.6842,1.8927,7.7936,6.1372,9.8754,5.5883,2.7408,10.8883,6.0858,16.5429,8.6652a8.2615,8.2615,0,0,0,6.3855-.2383c4.2231-2.2,7.8908-5.4912,12.1594-7.5675,2.1746-1.0577,5.1625-.4434,7.7828-.5849-.6432,2.6664-.4727,6.0773-2.0938,7.849-3.7432,4.0913-8.5352,7.2-12.5668,11.0568-4.46,4.2675-9.15,8.5-12.6745,13.5-7.9008,11.2079-10.8595,9.1313-23.062,4.3567-11.2279-4.3932-21.0628-12.4594-31.2775-19.2588a27.3054,27.3054,0,0,1-7.5446-7.9144c-1.1859-1.8522-1.0893-4.7562-.9793-7.1609.2527-5.5271,1.3208-11.044,1.2454-16.554-.21-15.3266-.9611-30.646-1.1527-45.9726a9.4174,9.4174,0,0,1,2.9167-6.6361c11.1881-8.9875,22.5423-17.7819,34.105-26.2819,4.3389-3.19,9.3415-5.4945,14.11-8.0767,4.9808-2.6975,7.4573.55,9.3521,4.3709,4.3784,8.8282,10.57,15.7669,20.4,18.1646,4.1433,1.0106,8.6682.4818,13.0212.5927,1.5064.0384,3.8224-.7165,4.3453-.0279a5.9071,5.9071,0,0,1,.7053,4.784c-3.4818,10.1746-10.9711,17.1517-20.5528,20.7266-10.8108,4.0334-21.0633,1.0721-29.6-6.9357a27.9793,27.9793,0,0,0-2.3944-2.3417,19.9436,19.9436,0,0,0-2.8775-1.4914c-.459,1.0955-1.3056,2.1871-1.3166,3.287-.1021,10.2145-.06,20.43-.06,30.6459Z" transform="translate(-6.8222 -0.4637)"/><path class="cls-1" d="M1199.0343,483.3964c-.6164-.7358-1.2173-1.4853-1.8516-2.2054-7.9044-8.9762-8.14-9.3187,1.6594-16.01,9.4361-6.4431,14.4537-13.7709,12.8183-26.1573-2.1074-15.9622-2.2255-32.1945-2.9868-48.3206-.1545-3.2718-.9748-7.536,4.6724-7.6025,10.5289-.1239,12.2307,1.0256,12.6485,7.9426,1.2209,20.2179,2.4806,40.4353,4.05,60.6276.1649,2.1226,2.0557,4.6665,3.8842,6.01,9.1286,6.7093,18.5763,12.9827,27.7541,19.6274,3.3984,2.4605,5.7728,2.602,9.1417-.4423q18.4857-16.7048,37.5838-32.7268c4.0413-3.402,5.9757-6.965,5.5784-12.36-2.3338-31.6867-4.3062-63.4-6.6919-95.0828-.79-10.4907-2.4969-20.9106-3.6461-31.3781-.1761-1.6033.4-3.2891.628-4.9368,1.6358.3152,3.6223.1431,4.85,1.0261,7.1262,5.1267,14.2928,10.2408,21.0082,15.88,4.8266,4.0532,3.8736,6.5325-1.6215,9.8617-1.9792,1.1991-4.0061,4.4576-3.8838,6.6582,1.2948,23.2982,3.0158,46.5728,4.6269,69.8534.8814,12.7331,2.1663,25.4581,2.4016,38.2027.0614,3.3253-2.3481,7.5729-4.953,9.9206-11.9639,10.7822-24.49,20.9372-36.6241,31.535a169.1426,169.1426,0,0,0-15.767,15.351c-3.1375,3.5605-5.4786,3.3733-8.8883.8493-12.9618-9.595-26.0883-18.9683-39.012-28.6138-3.3264-2.4826-5.7787-2.4653-8.7465.4715a92.1483,92.1483,0,0,1-11.2373,9.7207c-1.9982,1.4207-4.8941,1.5783-7.384,2.3074Z" transform="translate(-6.8222 -0.4637)"/><path class="cls-1" d="M289.3141,180.89c13.6561-.8243,25.4952,4.4358,37.1159,10.7653,5.884,3.2049,12.0695,6.3225,18.9275,2.1454a1.8588,1.8588,0,0,1,.89-.3374c2.6773.019,5.3543.0766,8.0314.123-1.537,1.8475-2.7713,4.1167-4.6609,5.4731-11.07,7.9467-22.2922,15.6819-33.4655,23.485-10.1644,7.0985-21.1179,6.6941-32.9447,5.0658-21.6425-2.98-42.6373-.4689-59.927,14.6476-5.5651,4.8656-9.6465,11.4038-14.6135,16.9931-1.4319,1.6113-3.5846,2.5821-5.4068,3.8466.1909-1.8969-.066-3.9838.6452-5.66,4.7257-11.1373,9.3359-22.3441,14.6392-33.2084,3.4519-7.0717,7.0423-14.5021,12.3008-20.1652,7.8143-8.4156,18.0139-14.1489,29.0832-17.5283,9.51-2.9035,19.3092-4.8621,28.98-7.2386Z" transform="translate(-6.8222 -0.4637)"/><path class="cls-1" d="M1129.4157,328.5307c.5359,40.7472.98,81.4963,1.7967,122.238a13.4632,13.4632,0,0,0,4.4334,8.7705c10.5319,9.0442,21.4651,17.6244,32.3494,26.2511,1.5376,1.2186,3.5988,2.4894,5.4241,2.499,5.5541.0292,8.4533,3.6792,9.5712,7.9122.53,2.0088-2.1195,5.4278-4.122,7.404-3.169,3.127-6.8913,2.6257-10.4-.0934q-14.017-10.8631-28.1288-21.6037c-6.8694-5.212-13.7614-10.4009-20.79-15.3932-3.4591-2.457-4.5922-5.2454-4.6148-9.6508-.114-22.1927-.733-44.3833-1.2466-66.573-.2958-12.7731-.7958-25.5415-1.0768-38.3148-.2154-9.7852-3.06-13.3658-12.6-16.1208-4.5073-1.3016-4.331-5.2118-1.8489-7.5123,8.0661-7.4759,16.459-14.6465,25.1794-21.3446,3.18-2.4423,5.4341.2855,5.5463,3.7944.1888,5.9083.0518,11.8271.0518,17.7415Z" transform="translate(-6.8222 -0.4637)"/><path class="cls-1" d="M1215.741,366.3783c-5.0584.7947-7.7055-2.0347-7.7685-7.579q-.2232-19.6728-.3066-39.3472c-.04-7.7534-2.0929-14.4163-8.9911-19.0261-.9327-.6233-1.37-3.5756-.7282-4.71,4.2049-7.4412,8.7107-14.7159,13.2452-21.9656,1.86-2.9731,4.1285-2.7147,6.123-.0581,4.4944,5.9865,9.1384,11.883,13.2155,18.1456,1.0995,1.689,1.4338,5.7226.3422,6.7045-10.3514,9.3125-9.2859,21.6052-9.0489,33.5136.174,8.7506,1.53,17.472,2.1445,26.2215C1224.4282,364.8284,1222.8879,366.3322,1215.741,366.3783Z" transform="translate(-6.8222 -0.4637)"/></svg>